<svg xmlns="http://www.w3.org/2000/svg" viewBox="0 0 350.84 574.05"><defs><style>.cls-1{fill:none;stroke:#000;stroke-miterlimit:10;}</style></defs><title>moisesIlustracaoFinal</title><g id="Layer_2" data-name="Layer 2"><path class="cls-1" d="M400.81,229.8c5,2-.41,25,2.38,43.66,1.77,11.8,6.88,20.81,10.9,29.62,4.62,10.16,8.43,13.24,13.61,25.53,3,7,4.75,11.34,5.79,17.71,1.81,11.13-.32,18.45,1.7,19.06s6-5.41,8.17-11.23c2.87-7.71.61-10.23,3.41-19.75,1.28-4.35,2.44-8.14,5.78-11.91a22,22,0,0,1,11.58-7.15c6.75-1.45,10.34,2.88,12.59.34s1.71-9,.34-30c-1.51-23.3-6.2-34.8-13.61-49.7-2.2-4.41-5.21-17.86-11.58-26.39-4.51-6-13-14.79-30.3-26.72-4.89-3.37-21.69-11.75-38.63-17.7A128.39,128.39,0,0,0,314,160.78c-12.84,2.09-37,6.33-58.89,24.85-22.62,19.14-26.05,47.32-27.41,54.13-.46,2.34,2.56,2,2.56,2,3.68,1.53,4.7-1.31,11.57-4.08,2.09-.85,5.71-1.7,12.94-3.4s12.74-2.67,15-3.07c12.91-2.3,25.79-4.6,39.15-9.19,13.81-4.75,20.71-7.12,28.26-13.62,9.38-8.08,14.17-17.7,17.7-16.34.86.34,1.45,1.25,2.72,8.51,2.27,13,8.86,16.09,7.24,20.77-.61,1.77,1.24-.14,3.66-.68,9.37-2.09,11.89-10.81,16-9.87,3.59.82,5,8.24,5.44,10.55.92,4.81,11.66,8.68,11.66,8.68" transform="translate(-185.72 -157.5)"/><path class="cls-1" d="M398.77,230.06" transform="translate(-185.72 -157.5)"/><path class="cls-1" d="M230.77,242.06c-.55-.06-2.4,12.93-4.09,24.77-1.87,13.12-2.82,19.69-3.32,27.06-.36,5.41-.5,11.86-.79,24.75-.18,8.51-.13,10,0,10s.89-5.32,3.31-27.83c2.37-21.92,2.36-21.9,2.56-24C229.65,264.34,231.48,242.14,230.77,242.06Z" transform="translate(-185.72 -157.5)"/><path class="cls-1" d="M260,259.29" transform="translate(-185.72 -157.5)"/></g><g id="Layer_3" data-name="Layer 3"><path class="cls-1" d="M315.53,318.91a51,51,0,0,1,24.77,0c3.17.82,20.33,5.26,26.81,15.83,1,1.57,2.85,5.18,6.63,6.38a21.68,21.68,0,0,0,7.15.51c3.39-.22,5-1,5.88,0,.58.67.06,1.32.25,4.34.17,2.66.61,2.87.26,3.58-.8,1.59-3.08.73-6.64,2.55-1.18.61-3.25,1.7-4.09,3.83a6.41,6.41,0,0,0-.25,3.32s.08.74-.77,9.7c-.56,5.94-4.5,11.46-6.89,14.81a42.19,42.19,0,0,1-17.11,14.81c-9.63,4.37-18.27,3.53-23,3.06a50.82,50.82,0,0,1-20.17-6.38,44.37,44.37,0,0,1-14-12c-3.65-4.87-7.95-10.59-8.68-18.13-.18-1.81-.24-4.71-2.3-7.15a10.36,10.36,0,0,0-6.38-3.31c-3.05-.45-7.17,1.25-10,3.57a16.39,16.39,0,0,0-6.13,10.43c-.11-.24,0,.68-.19.23-3.39-7.23-3.79-12.88-4.91-15-5.62-10.61-15.42-15.45-18.9-17.11s-9.51-4.45-17.36-4.08c-3.4.16-8.58.41-13.27,4.08-4.86,3.81-6.32,9-7.15,12-2,7.18-.64,13.14.51,18.13,1,4.35,2.56,10.82,7.66,17.36,5.24,6.74,11.35,9.85,15.57,12a45.62,45.62,0,0,0,12.77,4.34c4.37.79,7.55,1.32,11-.25,3.08-1.42,4.89-3.86,6.38-5.87a26.89,26.89,0,0,0,3.16-5.79c.3-.76.51-1.39.67-1.87,1.29-4,1.93-6.05,3.89-17.94h0" transform="translate(-185.72 -157.5)"/><path class="cls-1" d="M316.94,318.53c-5.37,1.91-9.17,3.34-12.13,5.23-7,4.49-12.5,8-15.83,14.56-1.52,3-2,5.5-4.6,6.63-2.39,1.06-4.14-.17-8.42-.25-4.48-.08-6,1.2-8.94,1.53-6.38.74-9.24-4.31-18.38-9.45a60.75,60.75,0,0,0-23.15-7.15c-7.39-.94-12.81-1.63-18.72,1.37-1.75.88-9,4.56-10.9,11.57-1.29,4.78.47,9.06-2.38,11.23a29.19,29.19,0,0,1-4.77,2.9c-1.3.61-1.85.73-2.21,1.36-.85,1.5.22,4.44,2.21,5.62,1.82,1.08,3.16-.05,5.45,1,4.7,2.2,5.83,8.41,11.49,17.62a45.9,45.9,0,0,0,11,12.68,40.71,40.71,0,0,0,16,7.49c5.52,1.33,12.5,3,16.85-.86,1.55-1.38,3.85-7.17,4.25-8.36" transform="translate(-185.72 -157.5)"/><path class="cls-1" d="M348.47,325a40,40,0,0,1,13.79,10.47,41,41,0,0,1,8.17,15.83c1.23,4.33,3,10.65,1.27,18.38-1.68,7.39-5.72,12.07-9.19,16.08-4,4.61-8.53,9.88-16.34,12.52-9.52,3.2-18,.52-23.74-1.28a48.23,48.23,0,0,1-17.37-9.7,46.79,46.79,0,0,1-11.74-16.6c-3.06-6.89-7-15.85-3.83-25.79,2.61-8.09,8.64-12.65,11.49-14.8,7.34-5.55,14.83-6.75,22.21-7.92a47.17,47.17,0,0,1,15.32-.26A40.54,40.54,0,0,1,348.47,325Z" transform="translate(-185.72 -157.5)"/><polygon class="cls-1" points="242.16 172.65 202.07 185.92 201.56 192.05 222.24 182.6 243.94 174.94 264.88 167.54 266.92 164.99 252.11 168.56 242.16 172.65"/></g><g id="Layer_4" data-name="Layer 4"><path class="cls-1" d="M264.47,364.36c-5.67,17.92-10.71,31.6-14.3,40.85s-7.23,18-3.06,24c3,4.36,9.51,6.28,10.72,6.64,2.16.64,6,1.77,10.21.51,3.78-1.13,3.87-3,8.17-5.62,2.28-1.4,8.91-5,16.34-4.08,5.73.71,6.87,3.48,10.73,2.55a10.87,10.87,0,0,0,7.66-8.68c1.07-6.77-5.34-11.2-6.13-11.75a15.21,15.21,0,0,0-9.19-2.55" transform="translate(-185.72 -157.5)"/></g><g id="Layer_5" data-name="Layer 5"><path class="cls-1" d="M436,365.12C433.27,361,428.8,383,415.62,418c-2.09,5.53-9.16,23.82-17.36,23.49-2.14-.08-3.16-1.38-5.62-1-5.2.77-7.22,7.52-11.24,14.3-.54.93-11.78,19.59-20.42,18.38-5.39-.75-4.55-8.5-12.77-17.87-7.77-8.86-17.33-12-30.64-16.34-14.31-4.68-21.47-7-28.08-3.57-5.17,2.69-8.26,7.9-13.79,7.15-1.95-.27-2.36-1.76-7.15-3.07-7.91-2.17-7.31-1.11-8.17-.89-2.87.72-4.29.93-9.7,6.51-2.79,2.88-4.18,4.31-5.62,4.08-4.33-.69-4.34-14.75-6.63-14.8-.86,0-2,1.91-4.09,12.25-2.31,11.17-3.91,22.82-3.06,23,.58.11.89,2.69.89,3.45,0,3.19.5.65,1.79,7.66.51,2.81,2.42,7.68,8.55,11.36,2.56,1.53,3.65.9,5.11,2.55s1.81,3.73.51,13.28c-.94,6.87-1.41,10.31-2.56,13.78A50.93,50.93,0,0,1,240,533.38c-3.92,6-5.71,5.79-6.64,8.68-2.72,8.48,9.69,19.56,11.23,20.94,11.1,9.91,16.82,5.64,27.58,15.83,5.73,5.43,8.74,9.62,12.76,8.8s4.23-2.32,8.05-2.68,4.73,2.55,10.85,4.6c4.86,1.63,11.91.38,15.83-3.58,2.28-2.3,2.78-2.65,5-2.8,1.85-.14,3.44-.68,4.72.76,4.51,5.08,9.35,8,13,7.28,3.37-.68,3.44-3.33,8.43-6.26,4-2.36,6.69.84,12.76,0,8-1.09,9.27-7.37,18.9-12.76,7.63-4.28,11.06-2.71,17.36-5.11,13.81-5.25,19.76-21.35,24.51-34.21,7.05-19.08,3.74-24.29,10.21-57.19,3.5-17.82,4.1-14.4,8.17-34.73,5.76-28.73-2-41.69,0-60C443,378.26,442.94,375.34,436,365.12Z" transform="translate(-185.72 -157.5)"/></g><g id="Layer_6" data-name="Layer 6"><path class="cls-1" d="M536.3,477.38c-.68-.41-1.74-1-3.07-1.7-7.58-3.9-11.17-3.45-18-5.79a65.13,65.13,0,0,1-17-9.19c-4.92-3.52-4.21-3.92-6.81-5.11-7.41-3.39-16.26-1.5-20.08-.68-5.79,1.24-7.75,2.73-9.88,1.36s-1.72-4.16-3.4-9.87c-1.86-6.32-5.18-12.18-6.13-11.91-.68.19-.71,3.72,2.39,19.06l-5.45,27.74-16.34,41.37L411,559.42" transform="translate(-185.72 -157.5)"/><path class="cls-1" d="M376.55,605.63c3-2.94-.65,1,5.88-.51,5.51-1.24,5.87-5.58,12.25-4.34,19.45,3.78,29.18,5.67,37.79,2.05,1.88-.8,9-4,12.76-11.24a23.49,23.49,0,0,0,2.56-10.21c0-.42,2.9-13.56,8.68-39.83,8-36.57,12-54.86,18.38-62.81,1.54-1.93,6.11-7.31,4.6-12.25-1.18-3.87-7.15-9.72-10.73-10.9" transform="translate(-185.72 -157.5)"/><path class="cls-1" d="M350.77,618c2.92,2.38,2,6.82,1.7,8.18-.13.59-1.47,6.62-5.45,7.14-2.91.39-5.27-2.44-5.79-3.06a8.61,8.61,0,0,1-2-6.13c0-.46.45-4.58,4.09-6.47C345.38,616.55,348.57,616.19,350.77,618Z" transform="translate(-185.72 -157.5)"/><path class="cls-1" d="M333.4,678.4c3.41.66,4.73,4.5,5.11,5.62s2,5.8-1,8.68a6.78,6.78,0,0,1-7.66,1c-3-1.6-3.41-5.09-3.57-6.64-.14-1.26-.53-4.86,2-7.15A6.37,6.37,0,0,1,333.4,678.4Z" transform="translate(-185.72 -157.5)"/></g><g id="Layer_7" data-name="Layer 7"><path class="cls-1" d="M225.15,337c-2.28,1.25-5.21,2.91-5.62,5.87-.38,2.79,1.55,6.14,4.09,6.89a4.78,4.78,0,0,0,2.72-.08c3.95-1.09,8.09-1.3,12.09-2.21a40.31,40.31,0,0,1,12.08-.85" transform="translate(-185.72 -157.5)"/><path class="cls-1" d="M266,346c-1.21-3.08-4.08-9-10-11.23-1.51-.58-2.52-.65-9.19-.51" transform="translate(-185.72 -157.5)"/><path class="cls-1" d="M288.81,337.46c-5.78-2.26-6.85-4-6.81-5.1.1-2.61,6.24-3.83,23.49-9.53,4.56-1.51-1.32.38,14-4.77,15.07-5.08,22.64-7.62,24.17-7.83a57.36,57.36,0,0,1,29.61,4.09,54,54,0,0,1,6.13,3.06" transform="translate(-185.72 -157.5)"/><path class="cls-1" d="M350.85,322.15c9.36-5.79,14.89-3.07,28.51-4.77" transform="translate(-185.72 -157.5)"/></g><g id="Layer_8" data-name="Layer 8"><path class="cls-1" d="M313.23,353.12c-.82-3.45,7.43-8.5,13.28-10.72a34.93,34.93,0,0,1,10.12-2.08,38.35,38.35,0,0,1,4.69,0c5.2.35,11.94.88,16.08,5.61,1,1.09,1.88,2.18,1.79,3.58-.29,4.51-10.82,7-13.53,7.66-8.43,2-15.17,1-20.94,0C318,356.1,313.77,355.39,313.23,353.12Z" transform="translate(-185.72 -157.5)"/><path class="cls-1" d="M335.11,341.21c-4.6,3.57-2.56,8.34-.85,10.55,2.95,3.84,9,3.19,10.8,2.73" transform="translate(-185.72 -157.5)"/><path class="cls-1" d="M347.19,342.57" transform="translate(-185.72 -157.5)"/><path class="cls-1" d="M254.26,351.59a17.81,17.81,0,0,0-12.26.51,17.22,17.22,0,0,0-6.64,5.11" transform="translate(-185.72 -157.5)"/><path class="cls-1" d="M257.83,365.12a33.42,33.42,0,0,1-10.47,1c-3.47-.23-5.93-.42-7.91-2.3s-3.82-5.63-3.92-6.9" transform="translate(-185.72 -157.5)"/><path class="cls-1" d="M258.51,362.32a8.48,8.48,0,0,1-7.49,0c-.55-.3-4.4-2.21-4.08-5.45.19-1.95,2.94-4.16,5.21-4.9" transform="translate(-185.72 -157.5)"/></g><g id="Layer_9" data-name="Layer 9"><path class="cls-1" d="M476.13,315.34a34.1,34.1,0,0,1,7.66,10,35.77,35.77,0,0,1,3.57,18.13c-.47,7-2.62,7.21-5.62,19.41-2.07,8.42-1,8.34-3.06,15.32A71.66,71.66,0,0,1,471,395.76c-3.53,5.8-5.29,8.69-9.19,10.73a19.64,19.64,0,0,1-13,1.53,15.64,15.64,0,0,1-4.9-2.13" transform="translate(-185.72 -157.5)"/><path class="cls-1" d="M458.34,337.46c.63-6.15,4.08-11.14,8.85-12.59,2.49-.76,6.68-1,8.85,1.36,1.56,1.67.73,3.21,2,10.21.72,3.89,1.11,4.11,1.36,6.47a24.79,24.79,0,0,1-1,9.87" transform="translate(-185.72 -157.5)"/><path class="cls-1" d="M453.91,351.76a11.51,11.51,0,0,1,11.24,2.73,10.7,10.7,0,0,1,3.06,9.87c-.7,2.82-2.67,4.57-4.42,6.13-3.17,2.81-4.36,1.95-7.15,4.76-2.06,2.08-2.15,3.29-4.43,4.77-1.22.79-3.88,2.19-4.76,1.36s1.25-3.24,2-8.17a30.59,30.59,0,0,0,0-8.51c-.46-3.1-1.22-4.65-.34-6.47a6,6,0,0,1,3.06-2.72" transform="translate(-185.72 -157.5)"/></g><g id="Layer_10" data-name="Layer 10"><path class="cls-1" d="M223.23,349.63c2.64,1.91,5.54,6.79,7.54,11.66,1.86,4.56,1.31,8,1,15.58a212,212,0,0,0,.25,21.45,142.29,142.29,0,0,0,3.58,22.21c1.45,6.43,2,10,3.32,14" transform="translate(-185.72 -157.5)"/><path class="cls-1" d="M267.7,465.46a81.71,81.71,0,0,0,11.92,3.07,43,43,0,0,0,9.87,1c6.09-.26,8.75-2.35,13.62-3.75,4.09-1.17,10.13-2,18.38,0" transform="translate(-185.72 -157.5)"/><path class="cls-1" d="M272.81,504.27c3.28-.23,6.82-7.41,5.45-12.93-.69-2.77-2.25-3.63-1.71-4.77.95-2,6.15-.35,18.05.68,7.21.63,10.4.46,11.23,2.38,1,2.27-2.71,4.14-2.72,8.52,0,5.42,5.64,9.3,6.46,9.87,6.09,4.18,13.17,2.9,13.62,2.38,7.15-8.17,8.56-15,8.68-15.83.36-2.55,6.94-10.86,4.6-14.81-1.61-2.71-3.36-3.09-6.47-6.47-4.21-4.57-3.28-6.34-5.79-8.85-6.35-6.34-15.5,1.84-28.59-4.08-2.71-1.23-5.31-2.93-10.22-4.09-3.4-.8-6.66-1.53-10.21-.34-1.31.44-3.23,1.33-8.17,6.81s-7.48,8.3-8.17,10.55c-1.72,5.66.94,10.79,6.13,20.77C268.45,500.75,270.37,504.44,272.81,504.27Z" transform="translate(-185.72 -157.5)"/><path class="cls-1" d="M265.66,469.55c.54,2.41,2.29,8.6,7.83,12.25s11.36,2.7,18,1.71c9-1.33,15.45-4.88,20.77-7.83a84.55,84.55,0,0,0,11.23-7.49" transform="translate(-185.72 -157.5)"/></g><g id="Layer_11" data-name="Layer 11"><path class="cls-1" d="M310.94,731.51c1.55-19.54,3.51-35.75,5.1-47.49,5.73-42.14,10.15-51,14.81-57.7,4.41-6.32,11.45-12.38,25.53-24.52,13.5-11.62,27.64-22,29.11-20.42.74.78-2.69,3.54-5.11,10.72-2.36,7-1,10.07-3.57,12.77-1.65,1.72-5,3.41-12.77,2" transform="translate(-185.72 -157.5)"/><path class="cls-1" d="M342.6,590.4a57.54,57.54,0,0,0,3.95,6.55,59.08,59.08,0,0,0,5.75,7" transform="translate(-185.72 -157.5)"/></g><g id="Layer_12" data-name="Layer 12"><path class="cls-1" d="M232.89,335.25c1.54.16,2.83.64,6.3,2.72,3.28,2,2.51,1.77,8.09,5.54,1.81,1.22,2.43,2.29,2.25,2.81-.12.36-.27.09-2.68.17-1.55,0-3.91.11-5.45.25a49.19,49.19,0,0,0-4.85.94c-5.48,1.07-5,.73-7.49,1.36-2.87.74-3.33,1.17-4.68.93a6.45,6.45,0,0,1-4.08-2.8,6.15,6.15,0,0,1-.68-4.51c.5-2.23,2.1-3.46,3.57-4.6a13.84,13.84,0,0,1,6.81-2.72A11.19,11.19,0,0,1,232.89,335.25Z" transform="translate(-185.72 -157.5)"/><path class="cls-1" d="M243.5,334c.17-.48,4.24.12,9,.06,2.2,0,1.42.21,2.24.35,2.75.49,4.54,2.18,6.51,4a39.59,39.59,0,0,1,3.63,4.53c.81,1.09,1.61,2.21,1.22,2.88a1.09,1.09,0,0,1-.7.44c-1.45.41-3-.53-4.34-1.4-2.15-1.39-3.7-2.57-4-2.81-1-.78-1.09-.74-8.68-5.36C245.55,335,243.38,334.35,243.5,334Z" transform="translate(-185.72 -157.5)"/></g><g id="Layer_13" data-name="Layer 13"><path class="cls-1" d="M344.88,354.51a4.57,4.57,0,0,0,1.85-.3c4-1,3.61-6,3.59-6.54a7.94,7.94,0,0,0-1.67-4.34" transform="translate(-185.72 -157.5)"/><path class="cls-1" d="M344.13,323.38c-3.2.92-11.24,1.45-17.36,3.19-14.54,4.13-12.13,4.22-14.43,5-5,1.67-7.72,3.75-14.43,5.49-2,.51-3.63.9-4.72,1.15" transform="translate(-185.72 -157.5)"/></g></svg>