<svg xmlns="http://www.w3.org/2000/svg" width="21.92cm" height="18.08cm" viewBox="0 0 621.36 512.44" style="" class="">
  <defs>
    <style>
      .cls-1, .cls-3 {
        fill: none;
      }

      .cls-1, .cls-2, .cls-3 {
        stroke: #000;
      }

      .cls-1 {
        stroke-miterlimit: 10;
      }
    </style>
  </defs>
  <title>comando</title>
  <g id="Layer_20" data-name="Layer 20">
    <g>
      <path class="cls-1 JpknBdgd_0" d="M369.61,412.6a66.74,66.74,0,0,1-.85-9.2c-.16-3.89-.24-6.08.7-8.39.39-1,1.37-2.95,7.34-7,5.27-3.58,8.07-5.45,14.33-8s9.73-2.9,12.07-1.93a12.5,12.5,0,0,1,3.84,3c1.64,1.61,2.27,2.77,5.07,6.65,1.05,1.45,2.17,3.22,2.71,3.93" transform="translate(-136.82 -41.99)"></path>
      <path class="cls-1 JpknBdgd_1" d="M405,379.1a24.82,24.82,0,0,1,7.27,3.67,33.34,33.34,0,0,1,6.18,7.23c.76,1.09,1.35,2,1.75,2.68" transform="translate(-136.82 -41.99)"></path>
      <path class="cls-1 JpknBdgd_2" d="M370.46,466.15c1.85,4.36,4,10.24,7.21,17.89,7.73,18.62,11.16,28.07,12.5,31.85,4.47,12.54,5.14,15.63,9.41,22.11,3.12,4.73,6.62,9.89,13.4,13.17a29.7,29.7,0,0,0,21,1.51c.66-.21,11.48-3.77,17.13-14.57a33.67,33.67,0,0,0,2.91-8.62c1.89-7.67,2.19-14.09,2.22-23.42.06-17.49-1-22.17.12-34.61.62-7,.08-1.91.52-8.23a13.19,13.19,0,0,1,2.27-6.34c1.11-1.48,7-5.15,7.52-5.36,6.26-2.82,7-4.16,13.23-7,5.63-2.56-.79.08,28.31-14.69,4.93-2.5,10-4.68,14.8-7.46l5-2.44a8,8,0,0,1,3-1.05,6.8,6.8,0,0,1,4,1.05c6.15,3.51,8.92,5.67,11,6.87,7.69,4.55,6.6,3.4,30.83,20.45,4.18,3,7.6,5.44,10,7.17" transform="translate(-136.82 -41.99)"></path>
      <path class="cls-1 JpknBdgd_3" d="M503.68,345.89a51.35,51.35,0,0,1-2.59-8.86c-.64-3.21-.95-4.9-.35-6.87.66-2.2,2.12-3.72,4.72-5.71,3.8-2.94,7.57-5,14.33-8.05,8.67-3.88,10.71-4.15,12.88-3.9a17.77,17.77,0,0,1,6.58,2.27,21.93,21.93,0,0,1,5.36,4.81,39.49,39.49,0,0,1,3.24,4.28" transform="translate(-136.82 -41.99)"></path>
      <path class="cls-1 JpknBdgd_4" d="M583.27,348c2.8,4.28,6.45,9.28,11.07,16.25,7.28,11,10.92,16.47,13.46,20.11,10.82,15.47,16.22,23.2,18.36,26,2.36,3.14,5.38,7.06,7.25,13.11a30.31,30.31,0,0,1,1.23,13.37,24.46,24.46,0,0,1-2.71,8.31,34.81,34.81,0,0,1-3.67,5.15c-.62.74-1.17,1.33-1.58,1.75" transform="translate(-136.82 -41.99)"></path>
      <path class="cls-1 JpknBdgd_5" d="M285.12,351.01L362.65,312.22"></path>
      <path class="cls-1 JpknBdgd_6" d="M566.64,357.72" transform="translate(-136.82 -41.99)"></path>
      <path class="cls-1 JpknBdgd_7" d="M745.26,498.32" transform="translate(-136.82 -41.99)"></path>
      <path class="cls-1 JpknBdgd_8" d="M745.26,493.77" transform="translate(-136.82 -41.99)"></path>
      <path class="cls-1 JpknBdgd_9" d="M362,431.08a45.75,45.75,0,0,1,11.65-23.31C377,404,387,394.19,402.79,391.92a41.07,41.07,0,0,1,21,1.86c14,5.27,20.36,17,21.68,19.58,8.41,16.51,2.19,32.72.7,36.6a48.23,48.23,0,0,1-16.55,21.67,47,47,0,0,1-31.7,8.16c-4.24-.48-16.88-1.91-26.33-12.35-9.28-10.25-9.83-22.9-10-27.51A45.24,45.24,0,0,1,362,431.08Z" transform="translate(-136.82 -41.99)"></path>
      <path class="cls-1 JpknBdgd_10" d="M500.74,351.25a51.78,51.78,0,0,1,13.11-16.43,49.28,49.28,0,0,1,17.65-9.27,46.9,46.9,0,0,1,22.2-.7,44.32,44.32,0,0,1,17.48,8,40.89,40.89,0,0,1,13.11,18,41.5,41.5,0,0,1,1.4,22.9A43.44,43.44,0,0,1,556,407.19a47.33,47.33,0,0,1-24.12,1.22c-5.48-1-15.23-2.88-23.6-11.19,0,0-11.23-11.15-11.53-27.79a44.13,44.13,0,0,1,2.09-13.64A43.09,43.09,0,0,1,500.74,351.25Z" transform="translate(-136.82 -41.99)"></path>
      <path class="cls-1 JpknBdgd_11" d="M392,404.43l6.12-3.06,3.4-1.53a3,3,0,0,1,2.19.44c.79.7,4.94,10.66,4.94,10.66l.94,2.36s.59,1.34.94,2a3.14,3.14,0,0,0,1.42,1,6,6,0,0,0,1.72-.35c.7-.29,10.2-4.66,10.2-4.66l4.49-2.09a6.45,6.45,0,0,1,1.34-.35c.93-.18,1.63.87,1.63.87l1.92,3.55L438,423.5l.61,1.31a15.29,15.29,0,0,1,.9,2.74c.17,1.07.18,1.76-.35,2.23s-10.88,5.42-10.88,5.42l-4.85,2.58s-1.1.46-1.22.87a2.51,2.51,0,0,0,.06,1.75c.29,1.05,3.61,8.56,3.61,8.56l2,4.32.93,2a10.21,10.21,0,0,1,.85,2.75c-.06.7-3.28,2.32-3.28,2.32l-9.79,4.94-5,2.44s-3.25,1.28-3.89.7-4.68-10.36-4.68-10.36l-3.23-7.34a1.59,1.59,0,0,0-.92-.61c-.58-.12-4.75,2.19-4.75,2.19l-7.75,3.61-2.33,1.16a10,10,0,0,1-2.12.88c-.8.18-1.43.64-2.13-.53s-3.32-7.34-3.32-7.34l-3.6-8.49s-1.3-2.23-.19-3.74,6.61-4,6.61-4l5.34-2.71s3.14-1.22,3.78-2.09a2.8,2.8,0,0,0,.64-2,15.74,15.74,0,0,0-1-3l-4-8.86-1.63-3.67a2.43,2.43,0,0,1,.7-2.16C384.14,408.29,392,404.43,392,404.43Z" transform="translate(-136.82 -41.99)"></path>
      <path class="cls-1 JpknBdgd_12" d="M519.53,340.5l12.26-5.94a17.11,17.11,0,0,1,2.33-1.05,5.67,5.67,0,0,1,2.8-.27,2.6,2.6,0,0,1,1.75.88c.35.52,3.76,6.9,3.76,6.9l2.09,4.29,1.2,2s0,.18.64.47,2-.29,2.39-.41,8.56-4.08,8.56-4.08l3.21-1.6a14.21,14.21,0,0,1,2.39-1c.7-.12,1.24-.48,1.94-.13a5.1,5.1,0,0,1,1.57,1.18c.35.41,3.42,5.71,3.42,5.71l4.49,7.81a10,10,0,0,1,.74,2.17,3.82,3.82,0,0,1-.28,2.31c-.52,1-5.49,3.5-5.49,3.5l-9.19,5.19-1.34.87c-.52.35-.52,1.34-.52,1.34l1.51,3s5.6,10,5.65,10.14,1,1.67,1,1.67a2.44,2.44,0,0,1,.41,1.36c-.11.53-5.81,3.6-5.81,3.6l-8.39,4.48L548,397.07s-1.35.74-2.16.39-1.93-2.34-1.93-2.34l-7-13.11a1.68,1.68,0,0,0-1.69-.93c-1.16.18-12.59,6.59-12.59,6.59l-4.13,2s-1.81,1.1-2.22.58-4.83-8.86-4.83-8.86L507,372.11a2.77,2.77,0,0,1-.12-1.81c.3-.93,6-3.78,6-3.78l8.74-5a7.43,7.43,0,0,0,2-1.31A3.58,3.58,0,0,0,524,358c-.17-.41-3-6.41-3-6.41l-3.55-8.13s-.24-1.25.35-1.78A15.11,15.11,0,0,1,519.53,340.5Z" transform="translate(-136.82 -41.99)"></path>
      <path class="cls-1 JpknBdgd_13" d="M405,339.88A8.12,8.24 0,1,1 421.24,339.88A8.12,8.24 0,1,1 405,339.88"></path>
      <path class="cls-1 JpknBdgd_14" d="M416.5,311.26A7.85,8.08 0,1,1 432.20000000000005,311.26A7.85,8.08 0,1,1 416.5,311.26"></path>
      <path class="cls-1 JpknBdgd_15" d="M386.76,303.61A7.92,8.16 0,1,1 402.6,303.61A7.92,8.16 0,1,1 386.76,303.61"></path>
      <path class="cls-1 JpknBdgd_16" d="M374.97,331.92A8.13,8.07 0,1,1 391.23,331.92A8.13,8.07 0,1,1 374.97,331.92"></path>
      <path class="cls-1 JpknBdgd_17" d="M537.34,340.08a11.51,11.51,0,0,1,2.2,2.69,9.46,9.46,0,0,1,1,3.45,8.53,8.53,0,0,1-.92,4.81,8.69,8.69,0,0,1-5.55,4.15,8.42,8.42,0,0,1-5.94-.78,7.84,7.84,0,0,1-2.49-2.28,17.3,17.3,0,0,1-1.77-4.26" transform="translate(-136.82 -41.99)"></path>
      <path class="cls-1 JpknBdgd_18" d="M553.89,350.2a10.27,10.27,0,0,0-.79,3.67,10.52,10.52,0,0,0,.62,3.72,8.11,8.11,0,0,0,3,4.15,8.22,8.22,0,0,0,4.9,1.61,8.06,8.06,0,0,0,5.85-2.18,8.16,8.16,0,0,0,2.71-4.82,8.4,8.4,0,0,0-.7-5.45,10.18,10.18,0,0,0-2.52-3.06" transform="translate(-136.82 -41.99)"></path>
      <path class="cls-2 JpknBdgd_19" d="M560.73,358.26l0-.07c-.59-1.14-.45-2.71.55-4.79.77-1.62,1-2.1.51-3a1.42,1.42,0,0,0-2.09-.69,1.66,1.66,0,0,0-.82,2.28l-1,.53a2.74,2.74,0,0,1,1.41-3.69,2.47,2.47,0,0,1,3.62,1c.61,1.2.35,1.93-.54,3.81a5.8,5.8,0,0,0-.8,3.05l4.16-2.14.33,1Z" transform="translate(-136.82 -41.99)"></path>
      <path class="cls-2 JpknBdgd_20" d="M533,349.5,529.89,343a5.68,5.68,0,0,1-1.28,1.43l-.39-.83a5.37,5.37,0,0,0,1.34-2l.78-.37L534,349Z" transform="translate(-136.82 -41.99)"></path>
      <path class="cls-2 JpknBdgd_21" d="M522.38,377.21l-.88-2.11-3.85,1.6-.41-1,1.61-6.64,1.17-.49,2.14,5.15,1.06-.44.27,1-.94.39.88,2.11Zm-2.13-5.11c-.26-.64-.59-1.45-.79-2-.07.77-.76,3.62-1.12,5.21l2.77-1.16Z" transform="translate(-136.82 -41.99)"></path>
      <path class="cls-2 JpknBdgd_22" d="M546.61,380.28a2.71,2.71,0,0,1,1.79-3.37c1.78-.76,3.06,0,3.54,1.13a1.93,1.93,0,0,1-.39,2.27l0,0a2.3,2.3,0,0,1,2.44,1.53c.58,1.36.3,3.06-1.83,4a2.91,2.91,0,0,1-4-1.13l1.13-.48a1.94,1.94,0,0,0,2.47.64,1.76,1.76,0,0,0,1-2.5c-.48-1.14-1.41-1.36-2.57-.86l-.62.26-.4-.94.52-.22c1.13-.48,1.43-1.13,1-2a1.41,1.41,0,0,0-2-.69,1.57,1.57,0,0,0-1,1.92Z" transform="translate(-136.82 -41.99)"></path>
      <path class="cls-1 JpknBdgd_23" d="M542.16,379.6a6.36,6.36,0,0,0-.35,3,14.55,14.55,0,0,0,.91,4.13,7.59,7.59,0,0,0,2.94,4,7.43,7.43,0,0,0,4.81,1.31,8.22,8.22,0,0,0,5.82-2.25,7.77,7.77,0,0,0,2.6-4.31,8.13,8.13,0,0,0-.12-5.27,9.66,9.66,0,0,0-2.75-3.79" transform="translate(-136.82 -41.99)"></path>
      <path class="cls-1 JpknBdgd_24" d="M524.2,367a8.59,8.59,0,0,1,3.59,2.84,11.43,11.43,0,0,1,1.44,4.09,11.14,11.14,0,0,1-.82,5.71,8.16,8.16,0,0,1-5.15,4.1c-.72.16-4.11.93-6.68-.54-1.39-.8-2.84-3.18-3.13-3.59a15.78,15.78,0,0,1-1.52-4.19" transform="translate(-136.82 -41.99)"></path>
      <path class="cls-1 JpknBdgd_25" d="M518.92,325.2c-.18-.3-.74-1.25-1.15-2.13a2.83,2.83,0,0,1-.25-.78,1.71,1.71,0,0,1,0-.87c.23-.65,1.15-.86,1.69-.88.26,0,1,0,1.22.41s-.26,1-.29,1.05a3.25,3.25,0,0,1-1,.64c-.26.13-1.07.46-1.22.52" transform="translate(-136.82 -41.99)"></path>
      <path class="cls-1 JpknBdgd_26" d="M351.97,363.74L364.1,361.63L354.94,369.98L351.97,363.74Z"></path>
      <path class="cls-1 JpknBdgd_27" d="M365.31,361.09L366.42,362.87L355.93,372.02L354.94,369.98"></path>
      <path class="cls-1 JpknBdgd_28" d="M323.31,379.77L332.52,374.61L334.94,379.51L325.78,385L323.31,379.77Z"></path>
      <path class="cls-1 JpknBdgd_29" d="M332.53,374.36L334.44,375.23L337.25,380.99L326.71,386.8L325.81,385.09"></path>
      <g>
        <path d="M493.57,419.78a1.92,1.92,0,0,0,1-.17c.49-.24.66-.64.47-1s-.46-.46-1.06-.41-1.26-.05-1.51-.58a1.2,1.2,0,0,1,.72-1.61,1.92,1.92,0,0,1,.92-.22l.06.46a1.85,1.85,0,0,0-.8.17c-.51.25-.56.65-.44.9s.48.42,1.1.37,1.23.09,1.49.64.09,1.29-.79,1.72a2.19,2.19,0,0,1-1.08.22Z" transform="translate(-136.82 -41.99)" class="JpknBdgd_30"></path>
        <path d="M495.77,415.33l-1.14.55-.2-.41,2.78-1.34.2.41-1.15.55,1.62,3.35-.5.23Z" transform="translate(-136.82 -41.99)" class="JpknBdgd_31"></path>
        <path d="M499.06,416.41l.18,1.37-.5.24-.53-4.37.58-.28,3.1,3.14-.52.25-1-1Zm1.05-1-.88-.91a6.87,6.87,0,0,1-.53-.59h0c.05.25.1.51.14.78L499,416Z" transform="translate(-136.82 -41.99)" class="JpknBdgd_32"></path>
        <path d="M500.66,412.53a5.8,5.8,0,0,1,.89-.53,1.7,1.7,0,0,1,1.24-.21,1,1,0,0,1,.63.57,1.09,1.09,0,0,1-.24,1.3v0a1,1,0,0,1,.91.49,7.3,7.3,0,0,0,.79.89l-.5.24a5.86,5.86,0,0,1-.69-.77c-.36-.47-.65-.57-1.1-.37l-.46.22.79,1.63-.49.23ZM502,414l.49-.24a.83.83,0,0,0,.51-1.12c-.24-.49-.69-.53-1.21-.29a2.87,2.87,0,0,0-.46.28Z" transform="translate(-136.82 -41.99)" class="JpknBdgd_33"></path>
        <path d="M504.6,411.08l-1.15.55-.2-.41,2.79-1.34.2.41-1.15.55,1.61,3.35-.49.24Z" transform="translate(-136.82 -41.99)" class="JpknBdgd_34"></path>
      </g>
      <g>
        <path d="M463,435.61a1.82,1.82,0,0,0,1-.17c.48-.24.63-.63.45-1s-.45-.44-1-.39-1.22-.05-1.47-.56a1.17,1.17,0,0,1,.7-1.56,1.75,1.75,0,0,1,.89-.21l0,.44a1.72,1.72,0,0,0-.77.17c-.5.24-.54.63-.42.87s.47.4,1.07.35,1.18.08,1.44.62.1,1.24-.76,1.66a2,2,0,0,1-1,.22Z" transform="translate(-136.82 -41.99)" class="JpknBdgd_35"></path>
        <path d="M467,432.23l-1.41.69.64,1.31,1.57-.77.19.4-2,1-1.77-3.63,2-1,.19.4-1.49.73.56,1.14,1.41-.69Z" transform="translate(-136.82 -41.99)" class="JpknBdgd_36"></path>
        <path d="M466.86,429.93l.47-.23,1.58,3.23,1.55-.75.19.39-2,1Z" transform="translate(-136.82 -41.99)" class="JpknBdgd_37"></path>
        <path d="M472.22,429.69l-1.41.69.64,1.31,1.57-.77.2.4-2.05,1-1.77-3.63,2-.95.19.39-1.49.73.56,1.15,1.41-.69Z" transform="translate(-136.82 -41.99)" class="JpknBdgd_38"></path>
        <path d="M476.3,429.66a2.5,2.5,0,0,1-.87.64,1.89,1.89,0,0,1-2.69-1,2,2,0,0,1,1-2.83,2.14,2.14,0,0,1,.94-.26l.08.44a2,2,0,0,0-.81.2,1.5,1.5,0,0,0-.68,2.19,1.47,1.47,0,0,0,2.11.78,2.27,2.27,0,0,0,.69-.52Z" transform="translate(-136.82 -41.99)" class="JpknBdgd_39"></path>
        <path d="M476.21,425.85l-1.1.54-.2-.4,2.69-1.31.2.39-1.11.55,1.58,3.23-.48.23Z" transform="translate(-136.82 -41.99)" class="JpknBdgd_40"></path>
      </g>
      <path class="cls-1 JpknBdgd_41" d="M393.61,406.75c-.27.8-.91,2.19-1.23,3.11-.05.13-.43,1-.33,1.14s.45,0,.61-.08c4.23-1.77,3.74-1.68,4.34-1.92.09,0,1.17-.49,1.2-.64s-.21-.25-.42-.37c-.76-.45-1-.59-1.57-.88s-1.08-.55-1.8-.87a.55.55,0,0,0-.48,0C393.76,406.29,393.64,406.68,393.61,406.75Z" transform="translate(-136.82 -41.99)"></path>
      <path class="cls-1 JpknBdgd_42" d="M378,447.55c.8.25,2.2.86,3.13,1.16.13,0,1,.4,1.15.3s0-.46-.1-.61c-1.87-4.18-1.76-3.7-2-4.29,0-.09-.52-1.16-.67-1.19s-.24.22-.36.44c-.43.77-.56,1-.84,1.58s-.52,1.1-.83,1.82a.62.62,0,0,0,0,.49C377.56,447.41,378,447.53,378,447.55Z" transform="translate(-136.82 -41.99)"></path>
      <path class="cls-1 JpknBdgd_43" d="M432.7,419.74c-.79-.3-2.16-1-3.07-1.33-.13-.05-1-.45-1.13-.36s0,.45.06.61c1.64,4.28,1.56,3.79,1.79,4.4a5.12,5.12,0,0,0,.6,1.22c.15,0,.25-.21.39-.42.47-.74.61-1,.92-1.53s.58-1.07.93-1.78a.58.58,0,0,0,.05-.48C433.16,419.9,432.77,419.77,432.7,419.74Z" transform="translate(-136.82 -41.99)"></path>
      <path class="cls-1 JpknBdgd_44" d="M417.65,460.5c.22-.81.77-2.24,1-3.18,0-.13.36-1.06.25-1.16s-.45,0-.6.13c-4.1,2-3.62,1.91-4.2,2.19-.09,0-1.14.58-1.16.73s.23.23.45.34c.79.4,1,.52,1.62.77s1.12.48,1.86.75a.61.61,0,0,0,.48,0C417.53,461,417.63,460.58,417.65,460.5Z" transform="translate(-136.82 -41.99)"></path>
      <path class="cls-1 JpknBdgd_45" d="M519.92,322.16l1.79,1.31" transform="translate(-136.82 -41.99)"></path>
      <path class="cls-1 JpknBdgd_46" d="M384.49,386.84l2,4.8s0,.05.26.13a17.79,17.79,0,0,0,3.06-1.61" transform="translate(-136.82 -41.99)"></path>
      <path class="cls-1 JpknBdgd_47" d="M450.28,218.15c-.84,4.44-2.25,10.15-3.79,17.92-3.74,18.9-6,28.23-6.95,31.94-3.08,12.34-4.17,15.15-4.27,22.57-.07,5.43-.08,11.39,3.39,17.64a27.39,27.39,0,0,0,15.18,12.48,28,28,0,0,0,20.57-2.32,31.5,31.5,0,0,0,6.68-5.26c5.4-5.06,8.94-10,13.79-17.36,9.08-13.81,10.69-18.09,18-27.34,4.08-5.18,1.37-1.36,5-6.13a11.39,11.39,0,0,1,4.69-3.9c1.6-.58,8-.29,8.49-.21,6.23,1.14,7.45.46,13.68,1.58,5.61,1-.64-.35,29.14,3.61,5,.67,10,1.68,15.12,2.05.14,0,1.79.26,5.08.76a7.1,7.1,0,0,1,2.85.8,6.45,6.45,0,0,1,2.47,3c2.87,6.09,3.86,9.29,4.79,11.34,3.5,7.73,3.26,6.23,12.88,32.77,1.13,3.1,1.89,6.45,3.88,11a41.87,41.87,0,0,0,3.71,7.34,27.62,27.62,0,0,0,11.07,10,25.94,25.94,0,0,0,9.79,2.45" transform="translate(-136.82 -41.99)"></path>
      <path class="cls-1 JpknBdgd_48" d="M613.64,194.94a56.31,56.31,0,0,1,2.77-8.9c1.18-2.89,1.81-4.39,3.29-5.64s3.53-1.79,6.54-2c4.41-.28,8.35.1,15.07,1.34,8.6,1.59,10.3,2.47,11.81,3.84a16.93,16.93,0,0,1,3.84,5.34,21.81,21.81,0,0,1,1.6,6.69,37,37,0,0,1,.24,5.12" transform="translate(-136.82 -41.99)"></path>
      <path class="cls-1 JpknBdgd_49" d="M673.05,239.15c-.09,4.9.35,10.59.27,18.6-.14,12.61-.21,18.91-.15,23.16.23,18.07.34,27.1.5,30.5a40.45,40.45,0,0,1-1.25,14.28,29.13,29.13,0,0,1-6,11.25,22.24,22.24,0,0,1-6.35,5.12,31.57,31.57,0,0,1-5.46,2.11c-.85.24-8.79,1.12-9.48.64" transform="translate(-136.82 -41.99)"></path>
      <path class="cls-1 JpknBdgd_50" d="M390.42,145.8L469.32,156.75"></path>
      <path class="cls-1 JpknBdgd_51" d="M477.18,175.15a68.75,68.75,0,0,1,4.21-7.74c1.9-3.16,3-4.94,4.87-6.26.8-.56,2.57-1.6,9.2-1.59,5.86,0,9,0,15.07,1.34s8.9,2.94,10.17,5a12,12,0,0,1,1.39,4.42c.42,2.15.3,3.41.43,8,0,1.72,0,3.73,0,4.58" transform="translate(-136.82 -41.99)"></path>
      <path class="cls-1 JpknBdgd_52" d="M521.52,167.8a24.06,24.06,0,0,1,3.66,6.69,33.46,33.46,0,0,1,1,9c0,1.27,0,2.32-.06,3.06" transform="translate(-136.82 -41.99)"></path>
      <path class="cls-1 JpknBdgd_53" d="M655.6,237.68" transform="translate(-136.82 -41.99)"></path>
      <path class="cls-1 JpknBdgd_54" d="M461.94,185.7a41.5,41.5,0,0,1,20.92-12.19,43.71,43.71,0,0,1,30.36,3.12,38,38,0,0,1,15,12.76c8,11.72,6.71,24.41,6.38,27.16-2.13,17.6-15.25,27.08-18.38,29.35a43.26,43.26,0,0,1-23.8,8.27,42.12,42.12,0,0,1-28.35-10.59c-3-2.66-11.86-10.59-13.65-24-1.77-13.1,4.36-23.42,6.59-27.17A42.13,42.13,0,0,1,461.94,185.7Z" transform="translate(-136.82 -41.99)"></path>
      <path class="cls-1 JpknBdgd_55" d="M608.79,197.11a46.46,46.46,0,0,1,18.47-6,43.54,43.54,0,0,1,18.23,2.16,42.43,42.43,0,0,1,26.4,27.15,40.45,40.45,0,0,1,.67,21.31,40,40,0,0,1-10.77,18.89A40.93,40.93,0,0,1,642,272a40.32,40.32,0,0,1-20.06-.83,43.42,43.42,0,0,1-19-12c-3.64-3.77-10.1-10.47-12.17-21.55,0,0-2.79-14.88,5.58-28.22a41.77,41.77,0,0,1,8.65-9.67A37.85,37.85,0,0,1,608.79,197.11Z" transform="translate(-136.82 -41.99)"></path>
      <path class="cls-1 JpknBdgd_56" d="M498.55,180.74l6.24.87,3.38.62a2.75,2.75,0,0,1,1.44,1.52c.24,1-1.75,11.1-1.75,11.1l-.5,2.38s-.25,1.37-.32,2.07a3.15,3.15,0,0,0,.55,1.6,5.75,5.75,0,0,0,1.49.65c.68.14,10.17,1.79,10.17,1.79l4.49.75a6.07,6.07,0,0,1,1.21.45c.8.36.79,1.57.79,1.57l-.38,3.84-1.63,10.65-.22,1.37a15.12,15.12,0,0,1-.72,2.65c-.43.93-.78,1.49-1.42,1.58s-11.09-1.56-11.09-1.56l-5-.57s-1.08-.23-1.38,0a2.41,2.41,0,0,0-.86,1.42c-.32,1-1.68,8.72-1.68,8.72l-.72,4.48-.32,2.08a10,10,0,0,1-.78,2.63c-.4.52-3.69.07-3.69.07l-10-1.35-5.06-.75s-3.13-.73-3.32-1.53,1.8-10.72,1.8-10.72l1.33-7.55a1.57,1.57,0,0,0-.38-1c-.39-.41-4.75-.83-4.75-.83l-7.76-1.3-2.38-.34a8.63,8.63,0,0,1-2.07-.45c-.7-.28-1.42-.26-1.35-1.56s1.27-7.6,1.27-7.6l1.65-8.66s.17-2.46,1.8-3.06,7.09.39,7.09.39l5.46.72s3,.73,4,.38a2.58,2.58,0,0,0,1.52-1.25,14.81,14.81,0,0,0,.76-2.94L487,185l.66-3.79a2.26,2.26,0,0,1,1.64-1.33C490.57,179.56,498.55,180.74,498.55,180.74Z" transform="translate(-136.82 -41.99)"></path>
      <path class="cls-1 JpknBdgd_57" d="M628.65,198.7l12.41,1.89a15.15,15.15,0,0,1,2.31.43,5.06,5.06,0,0,1,2.27,1.29,2.55,2.55,0,0,1,.88,1.63c0,.61-.71,7.49-.71,7.49l-.62,4.52-.15,2.26s-.09.14.25.72,1.66.83,2,1,8.63,1.37,8.63,1.37l3.27.46a12.51,12.51,0,0,1,2.31.52c.59.29,1.19.29,1.54.94a5.07,5.07,0,0,1,.59,1.78c.06.51-.35,6.37-.35,6.37l-.62,8.59a9.87,9.87,0,0,1-.55,2.12,3.78,3.78,0,0,1-1.41,1.69c-.91.5-6-.19-6-.19l-9.68-.84-1.47,0c-.58,0-1.09.78-1.09.78l-.38,3.17s-.9,10.9-.94,11.07-.12,1.85-.12,1.85a2.38,2.38,0,0,1-.38,1.3c-.36.35-6.29-.27-6.29-.27l-8.7-1-4.61-.79s-1.41-.14-1.85-.85a7.25,7.25,0,0,1-.26-2.88l1.46-14.15a1.62,1.62,0,0,0-.81-1.64c-1-.49-13-1.56-13-1.56l-4.17-.66s-2-.09-2-.73.9-9.61.9-9.61l1.37-9.75a2.71,2.71,0,0,1,.85-1.49c.7-.59,6.52.23,6.52.23l9.22.77a6.62,6.62,0,0,0,2.23.06A3.4,3.4,0,0,0,623,215c.07-.42,1.05-6.68,1.05-6.68l1.49-8.35s.48-1.11,1.19-1.22A13.38,13.38,0,0,1,628.65,198.7Z" transform="translate(-136.82 -41.99)"></path>
      <path class="cls-1 JpknBdgd_58" transform="translate(155.88 793.02) rotate(-81.56)" d="M622.55,247.82A7.86,7.5 0,1,1 638.27,247.82A7.86,7.5 0,1,1 622.55,247.82"></path>
      <path class="cls-1 JpknBdgd_59" transform="translate(133.05 766.69) rotate(-75.86)" d="M646.0699999999999,231.2A7.69,7.27 0,1,1 661.45,231.2A7.69,7.27 0,1,1 646.0699999999999,231.2"></path>
      <path class="cls-1 JpknBdgd_60" transform="translate(140.33 731.99) rotate(-75.86)" d="M627.37,209.18A7.76,7.33 0,1,1 642.89,209.18A7.76,7.33 0,1,1 627.37,209.18"></path>
      <path class="cls-1 JpknBdgd_61" transform="translate(-154.47 13.41) rotate(-5.11)" d="M604.2199999999999,225.36A7.46,7.75 0,1,1 619.14,225.36A7.46,7.75 0,1,1 604.2199999999999,225.36"></path>
      <path class="cls-1 JpknBdgd_62" d="M642.43,208a12.13,12.13,0,0,1,.28,3.32,9.22,9.22,0,0,1-1,3.27,7.94,7.94,0,0,1-3.18,3.31,7.74,7.74,0,0,1-6.37.31,7.53,7.53,0,0,1-4.84-7,17.68,17.68,0,0,1,.85-4.33" transform="translate(-136.82 -41.99)"></path>
      <path class="cls-1 JpknBdgd_63" d="M649.79,224.87a9.52,9.52,0,0,0-2.5,2.48,10.27,10.27,0,0,0-1.45,3.27,8.06,8.06,0,0,0,.17,4.93,7.89,7.89,0,0,0,2.89,3.91,7.24,7.24,0,0,0,5.58,1.42,7.4,7.4,0,0,0,4.56-2.36,8.15,8.15,0,0,0,2.28-4.69,10.11,10.11,0,0,0-.34-3.78" transform="translate(-136.82 -41.99)"></path>
      <path class="cls-2 JpknBdgd_64" d="M650.83,234.93v-.07c.14-1.22,1.06-2.39,2.9-3.5,1.42-.87,1.81-1.15,1.92-2.08a1.36,1.36,0,0,0-1.23-1.68c-1-.12-1.51.35-1.8,1.37l-1.07-.14a2.55,2.55,0,0,1,3-2.17,2.35,2.35,0,0,1,2.25,2.73c-.15,1.28-.73,1.71-2.38,2.73a5.29,5.29,0,0,0-2.18,2l4.26.55-.27,1Z" transform="translate(-136.82 -41.99)"></path>
      <path class="cls-2 JpknBdgd_65" d="M634.24,213.06l1-6.8a4.88,4.88,0,0,1-1.71.45l.13-.87a5,5,0,0,0,2.05-.86l.78.13-1.2,8.12Z" transform="translate(-136.82 -41.99)"></path>
      <path class="cls-2 JpknBdgd_66" d="M611.84,229.31l.43-2.14-3.76-.81.19-1,4.67-4.4,1.14.24-1,5.23,1,.22-.3.93-.92-.2-.43,2.15Zm1-5.2c.13-.64.3-1.46.42-2-.45.57-2.45,2.46-3.55,3.52l2.71.58Z" transform="translate(-136.82 -41.99)"></path>
      <path class="cls-2 JpknBdgd_67" d="M628.7,244.77a2.48,2.48,0,0,1,3.1-1.7,2.36,2.36,0,0,1,2.12,2.8,1.85,1.85,0,0,1-1.47,1.59v0a2.22,2.22,0,0,1,1.07,2.52,2.65,2.65,0,0,1-3.45,2.16,2.76,2.76,0,0,1-2.43-3l1.12.23a1.83,1.83,0,0,0,1.54,1.84,1.62,1.62,0,0,0,2.05-1.44,1.64,1.64,0,0,0-1.51-2.07l-.6-.12.18-1,.51.1c1.1.23,1.67-.13,1.84-1a1.33,1.33,0,0,0-1.19-1.64,1.42,1.42,0,0,0-1.78,1Z" transform="translate(-136.82 -41.99)"></path>
      <path class="cls-1 JpknBdgd_68" d="M625.67,241.84a6,6,0,0,0-1.82,2.19,14.28,14.28,0,0,0-1.45,3.76,7.47,7.47,0,0,0,.18,4.74,7,7,0,0,0,3,3.63,7.36,7.36,0,0,0,5.59,1.36,7.14,7.14,0,0,0,4.2-2,7.83,7.83,0,0,0,2.64-4.24,9.75,9.75,0,0,0-.13-4.48" transform="translate(-136.82 -41.99)"></path>
      <path class="cls-1 JpknBdgd_69" d="M618.49,222.23a8.57,8.57,0,0,1,1.26,4.18,11.32,11.32,0,0,1-1,4,10.57,10.57,0,0,1-3.57,4.08,7.19,7.19,0,0,1-6,.47c-.64-.25-3.61-1.47-4.8-4-.65-1.38-.53-4.05-.53-4.52a15.17,15.17,0,0,1,1-4.13" transform="translate(-136.82 -41.99)"></path>
      <path class="cls-1 JpknBdgd_70" d="M636.09,186.26c0-.33.09-1.39.23-2.3a3.18,3.18,0,0,1,.21-.76,1.61,1.61,0,0,1,.46-.69c.51-.39,1.32-.06,1.73.21.2.14.79.53.72,1s-.72.66-.76.67a2.88,2.88,0,0,1-1.13-.06c-.26,0-1-.21-1.2-.24" transform="translate(-136.82 -41.99)"></path>
      <path class="cls-1 JpknBdgd_71" d="M434.71,191.84L445.02,196.69L433.75,198.38L434.71,191.84Z"></path>
      <path class="cls-1 JpknBdgd_72" d="M446.24,196.92L446.16,198.92L433.45,200.52L433.75,198.38"></path>
      <path class="cls-1 JpknBdgd_73" d="M404.63,189.12L414.64,190.23L414.04,195.47L403.88,194.66L404.63,189.12Z"></path>
      <path class="cls-1 JpknBdgd_74" d="M414.74,189.99L415.45,191.51L414.62,197.55L403.68,196.49L403.88,194.66"></path>
      <g>
        <path d="M567.91,247.52a1.65,1.65,0,0,0,.84.4.69.69,0,0,0,.89-.55c.05-.37-.12-.61-.6-.9s-.92-.72-.84-1.27a1.1,1.1,0,0,1,1.38-.89,1.67,1.67,0,0,1,.81.33l-.2.39a1.54,1.54,0,0,0-.69-.3c-.52-.08-.76.21-.8.48s.15.59.65.88.88.73.8,1.31a1.16,1.16,0,0,1-1.49.93,1.94,1.94,0,0,1-.94-.4Z" transform="translate(-136.82 -41.99)" class="JpknBdgd_75"></path>
        <path d="M571.89,245.18l-1.15-.18.06-.43,2.81.43-.06.44-1.16-.18-.51,3.52-.49-.08Z" transform="translate(-136.82 -41.99)" class="JpknBdgd_76"></path>
        <path d="M573.84,247.81l-.58,1.18-.5-.08,1.85-3.75.59.09.73,4.15-.52-.08-.23-1.3Zm1.3-.21-.21-1.19c0-.27-.07-.52-.09-.75h0c-.09.23-.18.46-.29.69l-.54,1.09Z" transform="translate(-136.82 -41.99)" class="JpknBdgd_77"></path>
        <path d="M577.05,245.59a4.67,4.67,0,0,1,1,.07,1.56,1.56,0,0,1,1.06.49,1.07,1.07,0,0,1,.19.8,1,1,0,0,1-.86.89v0a1,1,0,0,1,.44.89,5.85,5.85,0,0,0,.14,1.13l-.51-.08a5.35,5.35,0,0,1-.12-1c0-.56-.21-.8-.65-.88l-.46-.07-.25,1.71-.49-.08Zm.23,1.88.51.08a.76.76,0,0,0,1-.62c.07-.51-.25-.79-.77-.87a1.89,1.89,0,0,0-.49,0Z" transform="translate(-136.82 -41.99)" class="JpknBdgd_78"></path>
        <path d="M580.8,246.56l-1.15-.17.06-.44,2.81.44-.06.43-1.16-.18-.51,3.52-.49-.08Z" transform="translate(-136.82 -41.99)" class="JpknBdgd_79"></path>
      </g>
      <g>
        <path d="M536.45,243.61a1.74,1.74,0,0,0,.81.37c.49.07.81-.15.86-.54s-.12-.59-.59-.86-.89-.69-.82-1.23a1.07,1.07,0,0,1,1.34-.86,1.5,1.5,0,0,1,.78.31l-.18.38a1.4,1.4,0,0,0-.68-.29.61.61,0,0,0-.77.47c-.05.36.15.57.63.85s.86.7.79,1.27a1.14,1.14,0,0,1-1.45.91,1.92,1.92,0,0,1-.9-.39Z" transform="translate(-136.82 -41.99)" class="JpknBdgd_80"></path>
        <path d="M541.27,243.11l-1.43-.22-.19,1.38,1.6.24-.06.42-2.07-.31.53-3.83,2,.29-.06.42-1.51-.23-.17,1.21,1.43.22Z" transform="translate(-136.82 -41.99)" class="JpknBdgd_81"></path>
        <path d="M542.34,241.19l.47.07-.47,3.41,1.57.24,0,.41-2.05-.3Z" transform="translate(-136.82 -41.99)" class="JpknBdgd_82"></path>
        <path d="M546.54,243.89l-1.43-.21-.19,1.38,1.59.23,0,.42-2.07-.31.52-3.83,2,.3-.06.41-1.51-.22-.16,1.21,1.43.21Z" transform="translate(-136.82 -41.99)" class="JpknBdgd_83"></path>
        <path d="M549.66,246.06a2.43,2.43,0,0,1-1,0,1.8,1.8,0,0,1-1.55-2.21,1.86,1.86,0,0,1,2.19-1.73,2,2,0,0,1,.85.3l-.17.39a1.67,1.67,0,0,0-.72-.27,1.58,1.58,0,0,0-.45,3.12,1.87,1.87,0,0,0,.8,0Z" transform="translate(-136.82 -41.99)" class="JpknBdgd_84"></path>
        <path d="M551.56,243l-1.11-.17,0-.42,2.73.41-.06.42-1.13-.17-.46,3.41-.48-.07Z" transform="translate(-136.82 -41.99)" class="JpknBdgd_85"></path>
      </g>
      <path class="cls-1 JpknBdgd_86" d="M498.57,183.44c-.62.48-1.82,1.24-2.54,1.79-.11.08-.86.59-.84.73s.35.23.51.26c4.12.88,3.71.69,4.29.82a4.4,4.4,0,0,0,1.25.14c.09-.1,0-.31-.14-.52-.34-.77-.45-1-.73-1.54s-.55-1-.92-1.66c-.05-.08-.17-.27-.35-.29S498.63,183.4,498.57,183.44Z" transform="translate(-136.82 -41.99)"></path>
      <path class="cls-1 JpknBdgd_87" d="M465.62,207.36c.48.63,1.24,1.87,1.79,2.6.08.11.59.88.72.86s.21-.37.24-.54c.74-4.31.57-3.87.68-4.48a4.73,4.73,0,0,0,.1-1.3c-.1-.1-.29,0-.5.15-.73.38-.95.5-1.45.8s-1,.59-1.58,1c-.08.06-.26.18-.27.37S465.58,207.3,465.62,207.36Z" transform="translate(-136.82 -41.99)"></path>
      <path class="cls-1 JpknBdgd_88" d="M521.6,214.75c-.44-.66-1.13-1.94-1.64-2.7-.08-.11-.54-.91-.68-.9s-.23.36-.26.52c-1,4.27-.77,3.84-.92,4.44a5.13,5.13,0,0,0-.17,1.29c.09.11.3,0,.51-.12.74-.33,1-.44,1.49-.72s1-.53,1.63-.91c.08-.05.27-.16.29-.34A1.08,1.08,0,0,0,521.6,214.75Z" transform="translate(-136.82 -41.99)"></path>
      <path class="cls-1 JpknBdgd_89" d="M489.08,238.93c.59-.52,1.75-1.36,2.42-2,.1-.09.82-.65.8-.79s-.37-.2-.53-.23c-4.17-.58-3.74-.42-4.33-.51a4.09,4.09,0,0,0-1.26-.05c-.08.1.06.3.17.51.39.74.52,1,.83,1.48s.61,1,1,1.59c.06.08.18.27.36.27S489,239,489.08,238.93Z" transform="translate(-136.82 -41.99)"></path>
      <path class="cls-1 JpknBdgd_90" d="M638.43,184.39l.69,2" transform="translate(-136.82 -41.99)"></path>
      <path class="cls-1 JpknBdgd_91" d="M501.93,162.76l-1,4.89s-.05,0,.13.24a15.69,15.69,0,0,0,3.17.37" transform="translate(-136.82 -41.99)"></path>
      <path class="cls-1 JpknBdgd_92" d="M490.51,199.25l3,4.21s.49,1.1,1.45.6,4.93-3.34,4.93-3.34l1.72-8.45a6.14,6.14,0,0,0-1.12-.31c-.73-.15-7.92-1.5-7.92-1.5s-.2-.13-.3.17S490.51,199.25,490.51,199.25Z" transform="translate(-136.82 -41.99)"></path>
      <path class="cls-1 JpknBdgd_93" d="M492.19,189l9.8,1.58s1.63,1.36,1.59,1.82-1.93,8.28-1.93,8.28a16.81,16.81,0,0,1-1.16,1.34c-.37.34-4.6,3.32-4.6,3.32s-1.52,1.31-2.52.66a8.33,8.33,0,0,1-2.11-2.5c-.46-.64-2.48-3.91-2.48-3.91l2.51-10.6a4.76,4.76,0,0,1,1.31.09" transform="translate(-136.82 -41.99)"></path>
      <path class="cls-1 JpknBdgd_94" d="M484.59,203.19l2.66,4.94a1.23,1.23,0,0,1-.08,1.74c-.91.77-5.37,3.58-5.37,3.58L473,211.52a8,8,0,0,1,.2-1.28c.18-.8,2.29-8.63,2.29-8.63a.5.5,0,0,1,.46-.25C476.27,201.39,484.59,203.19,484.59,203.19Z" transform="translate(-136.82 -41.99)"></path>
      <path class="cls-1 JpknBdgd_95" d="M474,200.76l-2.72,10.49s.55,2.24,1,2.39,8.42,1.66,8.42,1.66,1.23-.36,1.73-.59,5-3.17,5-3.17,1.85-.95,1.69-2.24a9.18,9.18,0,0,0-1.41-3.19c-.39-.74-2.53-4.18-2.53-4.18l-10.79-2.08a3.33,3.33,0,0,0-.45,1.51" transform="translate(-136.82 -41.99)"></path>
      <path class="cls-1 JpknBdgd_96" d="M505.39,207.94l-4.18,3.57a1.17,1.17,0,0,0-.5,1.64c.6,1.06,3.89,5.37,3.89,5.37l9,1.58a8.31,8.31,0,0,0,.24-1.27c.1-.81.73-8.87.73-8.87a.55.55,0,0,0-.36-.41C513.89,209.45,505.39,207.94,505.39,207.94Z" transform="translate(-136.82 -41.99)"></path>
      <path class="cls-1 JpknBdgd_97" d="M516.18,209.52l-1,10.81s-1.28,1.88-1.75,1.87-8.43-1.59-8.43-1.59a15.8,15.8,0,0,1-1.41-1.19c-.36-.38-3.59-4.81-3.59-4.81s-1.4-1.58-.81-2.72a9.17,9.17,0,0,1,2.41-2.47c.62-.54,3.8-3,3.8-3l10.79,2.07a3.33,3.33,0,0,1-.09,1.57" transform="translate(-136.82 -41.99)"></path>
      <path class="cls-1 JpknBdgd_98" d="M486.87,220.3l4.17-2.87a1,1,0,0,1,1.53,0c.72.89,3.47,5.32,3.47,5.32l-1.14,9a7,7,0,0,1-1.14-.16L486,229.79s-.22.05-.22-.28S486.87,220.3,486.87,220.3Z" transform="translate(-136.82 -41.99)"></path>
      <path class="cls-1 JpknBdgd_99" d="M484.87,231l9.67,2.23s2-.65,2.13-1.09,1.09-8.44,1.09-8.44a17.13,17.13,0,0,0-.62-1.69c-.22-.46-3.12-4.83-3.12-4.83s-1-1.79-2.12-1.58a8.1,8.1,0,0,0-2.84,1.54c-.66.42-3.68,2.7-3.68,2.7L484,230.68a3,3,0,0,0,1.39.38" transform="translate(-136.82 -41.99)"></path>
      <path class="cls-3 JpknBdgd_100" d="M195.43,227.37c4.63-.64,9.53-2.18,17-4.19,7-1.9,13.29-3.61,20.89-7.52a91,91,0,0,0,19.31-13.72,138.48,138.48,0,0,0,14.25-14.77c2.71-3.17,5.74-7,11.8-14.78,5.85-7.47,5.75-7.51,8-10.31,4.75-5.8,8.55-10.44,14-15.29a91.41,91.41,0,0,1,22-14.43,106.65,106.65,0,0,1,17.65-6.2,135.68,135.68,0,0,1,23.6-4.81c2.89-.31,3.25-.24,14.07-1.22,6.26-.57,9.38-.85,10.93-1a130.49,130.49,0,0,0,19.05-4,182,182,0,0,0,18.53-6.21c8-3.15,12.71-6.59,17.13-8.82,4.95-2.5,11-7.93,18.08-11.53" transform="translate(-136.82 -41.99)"></path>
      <path class="cls-3 JpknBdgd_101" d="M463.33,87.35" transform="translate(-136.82 -41.99)"></path>
      <path class="cls-1 JpknBdgd_102" d="M461.7,88.52c7.71-3.91,18.72-9.32,32.16-15.38,20.5-9.25,33.42-15.08,50.81-20.52,14.4-4.49,30.14-9,53-9.9C624.72,41.67,641,44.47,645,45c6.85.89,34.73,9.71,34.43,9.62-9.06-2.87,17,4.82,27.1,9.43,13,6,16.94,9.44,20.8,12.59,5.69,4.64,9.11,11.14,9.78,14.93" transform="translate(-136.82 -41.99)"></path>
      <path class="cls-3 JpknBdgd_103" d="M194.48,237.57" transform="translate(-136.82 -41.99)"></path>
      <path class="cls-1 JpknBdgd_104" d="M395.6,425.88l5.22,1.89a1.13,1.13,0,0,0,1.66-.39c.58-1.09,2.49-6.26,2.49-6.26l-3.42-8.86a6.55,6.55,0,0,0-1.2.44c-.74.33-8,3.75-8,3.75s-.25,0-.17.34S395.6,425.88,395.6,425.88Z" transform="translate(-136.82 -41.99)"></path>
      <path class="cls-1 JpknBdgd_105" d="M391.13,415.45l9.73-4.62s2.28.18,2.51.6,3.12,8.33,3.12,8.33a18,18,0,0,1-.26,1.87c-.13.52-2.18,5.68-2.18,5.68s-.6,2.05-1.88,2.11a8.88,8.88,0,0,1-3.37-.88c-.79-.27-4.52-1.86-4.52-1.86l-4-10.69a3.25,3.25,0,0,1,1.38-.72" transform="translate(-136.82 -41.99)"></path>
      <path class="cls-1 JpknBdgd_106" d="M392.66,432.47,398,435a1.21,1.21,0,0,1,.93,1.55c-.4,1.23-2.89,6.49-2.89,6.49L386.78,447a8,8,0,0,1-.56-1.24c-.29-.8-2.86-8.87-2.86-8.87a.59.59,0,0,1,.29-.51C384,436.2,392.66,432.47,392.66,432.47Z" transform="translate(-136.82 -41.99)"></path>
      <path class="cls-1 JpknBdgd_107" d="M381.64,436.75l3.71,10.74s1.81,1.59,2.3,1.46,8.54-3.72,8.54-3.72a18.25,18.25,0,0,0,1.21-1.56c.29-.47,2.64-5.79,2.64-5.79s1.1-1.95.2-3a9.5,9.5,0,0,0-3.14-1.9c-.79-.4-4.73-2.07-4.73-2.07l-10.92,4.8a3.45,3.45,0,0,0,.47,1.58" transform="translate(-136.82 -41.99)"></path>
      <path class="cls-1 JpknBdgd_108" d="M414.14,423.64l-1.68,5.7a1.23,1.23,0,0,0,.52,1.75c1.17.55,6.71,2.29,6.71,2.29l9.1-4.18a7.32,7.32,0,0,0-.54-1.25c-.39-.77-4.6-8.2-4.6-8.2a.54.54,0,0,0-.56-.14C422.74,419.72,414.14,423.64,414.14,423.64Z" transform="translate(-136.82 -41.99)"></path>
      <path class="cls-1 JpknBdgd_109" d="M424.75,418.53l5.41,10s-.06,2.41-.48,2.68-8.51,3.78-8.51,3.78a19.75,19.75,0,0,1-2-.16c-.55-.11-6.05-2-6.05-2s-2.19-.5-2.33-1.85a9.72,9.72,0,0,1,.72-3.6c.24-.85,1.68-4.88,1.68-4.88l10.92-4.81a3.46,3.46,0,0,1,.84,1.42" transform="translate(-136.82 -41.99)"></path>
      <path class="cls-1 JpknBdgd_110" d="M404.62,446.06l2.31-5.45a1.21,1.21,0,0,1,1.51-1c1.26.34,6.68,2.6,6.68,2.6l4.44,9.09a8.16,8.16,0,0,1-1.22.62c-.79.33-8.75,3.54-8.75,3.54s-.2.19-.4-.11S404.62,446.06,404.62,446.06Z" transform="translate(-136.82 -41.99)"></path>
      <path class="cls-1 JpknBdgd_111" d="M409.79,456.76l10.3-3.89s1.43-1.82,1.26-2.29-4.29-8.32-4.29-8.32-1.11-.86-1.63-1.15-5.89-2.46-5.89-2.46-2-1-2.94-.13a8.69,8.69,0,0,0-1.64,3.13c-.34.78-1.68,4.69-1.68,4.69L408.81,457a3.26,3.26,0,0,0,1.52-.5" transform="translate(-136.82 -41.99)"></path>
      <path class="cls-1 JpknBdgd_112" d="M476,446.44a79.33,79.33,0,0,0,13.25,9,82.23,82.23,0,0,0,21.24,7.43,118.87,118.87,0,0,0,33.64,2.36c5.61-.27,10.86-.86,20.28-1.92,8-.89,9.86-1.27,16.08-1.92,2.24-.24,8.65-.89,21.94-1.58,10.68-.55,12.21-.43,31.64-1.13,15.76-.58,20.07-.85,25.44-1.4a173.19,173.19,0,0,0,19.05-2.89c6.25-1.33,10.46-2.22,16-4.37a74.25,74.25,0,0,0,18.62-10.4,64.82,64.82,0,0,0,19.49-24.21,81.61,81.61,0,0,0,4.9-13.63A178.28,178.28,0,0,0,741.88,382c1-5.65,2.11-13.15,3.23-23.69.95-8.85,1-11.94,2-24.21.8-10,.74-8,2.89-32.08s2.11-25.14,3.14-35c1.41-13.43,1.68-13.49,2.68-24.12,1.43-15.07,2.13-22.79,1.75-31.82-.48-11.58-.76-18.33-4.31-26.8a83.69,83.69,0,0,0-12.82-20c-3.21-3.71-7.46-8-7.46-8-1.17-1.2-3-3.29-3.61-3.93" transform="translate(-136.82 -41.99)"></path>
      <path class="cls-1 JpknBdgd_113" d="M690,133.44c-4.89-2-16.5-5.52-24.68-8-6.9-2.07-14.3-4.63-24.83-6.06-8.74-1.19-15.67-2.15-23.79-.84a49.6,49.6,0,0,0-16.73,5.5c-2.82,1.6-8.08,6.21-12.73,12.24-1.88,2.43-3.12,4.92-5.6,9.9-3.11,6.26-4.64,11.48-6.71,16.9-1.36,3.57-2.83,8.76-4.72,14.51" transform="translate(-136.82 -41.99)"></path>
      <path class="cls-1 JpknBdgd_114" d="M482.23,443.34A92.41,92.41,0,0,0,493,449.66a96.08,96.08,0,0,0,29.37,8.63,108.1,108.1,0,0,0,18,.7c4-.14,7.17-.45,12.12-.94,6.59-.64,8.65-1,15.85-1.86,1.82-.21,8.72-1,16.75-1.66,5.3-.44,10.21-.7,20-1.22,3.11-.17,11-.59,21.85-1.05,2.37-.11,2.58-.11,15-.62,12.27-.49,18.44-.74,19.75-.87a148.91,148.91,0,0,0,23.16-4.19,74.94,74.94,0,0,0,9.62-3.15,65.37,65.37,0,0,0,10.22-5.25,59.14,59.14,0,0,0,13.11-11.36,60.23,60.23,0,0,0,8.48-13.2,79.78,79.78,0,0,0,5.07-13.46,151.69,151.69,0,0,0,4.46-19.92c.54-3.24,1.47-9.12,3.06-24.21,1.07-10.27,1.36-14.41,2.53-26.84.31-3.33,1.06-10.77,2.54-25.52,3-30.24,4.54-45.37,4.63-46.17,1.41-12.92,2.1-18.05,2.91-28.56.64-8.24,1.38-20.19-1.16-33.09a56.81,56.81,0,0,0-3.27-11.07,61.09,61.09,0,0,0-7.8-13.29c-2.56-3.54-6.4-9.39-13.58-15.09-1.85-1.46-4.64-4.52-5.83-5.3" transform="translate(-136.82 -41.99)"></path>
      <path class="cls-1 JpknBdgd_115" d="M686,130.69a100.07,100.07,0,0,0-14.2-6.89,82.63,82.63,0,0,0-13.86-5,115.45,115.45,0,0,0-21.24-4.41,80.45,80.45,0,0,0-21.56.15c-4.81.71-11.28,1.73-18.41,5.94-1.92,1.13-5.89,4.56-10.37,9.79a59.73,59.73,0,0,0-8.51,12c-.39.78-.39.81-4,8.86-3,6.71-4.84,12.5-6.37,17.06-1.09,3.28-2.14,6.51-2.14,6.51-.21.89-.38,2-.48,2.49" transform="translate(-136.82 -41.99)"></path>
      <path class="cls-1 JpknBdgd_116" d="M620.71,113.92a50.79,50.79,0,0,1,14.51-3.26c9.52-.69,16.31,1.74,22.49,3.61,13.32,4,23.53,9.13,34.73,16.08,3.91,2.43,7.89,4.74,11.77,7.23,1,.62,4.73,3.19,14.26,8.45a20.44,20.44,0,0,0,7.06,2.39c1.36.1,4.27.55,6.65-1.28,2-1.57,3.12-4.57,3.77-7.06a33.84,33.84,0,0,0,.47-9.09c-1.2-9.75-1.57-18.34-1.53-18.35" transform="translate(-136.82 -41.99)"></path>
      <path class="cls-1 JpknBdgd_117" d="M737.07,91.37c1.43,6.64,2,12.08,2.62,16.26.77,5.2.76,10.64,1.54,21.27a41.94,41.94,0,0,1-.61,12.23c-.86,4-1.73,5.56-2.63,6.73a9.24,9.24,0,0,1-5.24,3.76,18.88,18.88,0,0,1-11.89-.17,58.1,58.1,0,0,1-14.47-7c-10.42-6.63-17.63-11.92-17.63-11.92-9.09-6.15-12.89-6.89-16.09-8.51-5.43-2.75-8.29-3.3-12.4-4.6a132.88,132.88,0,0,0-19.92-4.54c-5.38-.89-8.34-.94-16.46-1.11" transform="translate(-136.82 -41.99)"></path>
      <path class="cls-1 JpknBdgd_118" d="M600.56,123.7c-1.37,1.9-9.46,11-11.29,14a81.08,81.08,0,0,0-7.08,11.65A137.43,137.43,0,0,0,574,170.44c-.8,2.77-1.41,5.26-1.79,6.92" transform="translate(-136.82 -41.99)"></path>
      <path class="cls-1 JpknBdgd_119" d="M610,119.92c-1.57,1.13-6.27,7.4-8.28,9.68-3.87,4.38-3.2,3.58-7.45,8.85-3.63,4.5-5.23,8.56-7.64,13.35a72.33,72.33,0,0,0-6.7,16.95c-.81,3-1.53,9.13-1.91,11" transform="translate(-136.82 -41.99)"></path>
      <path class="cls-1 JpknBdgd_120" d="M445.93,381c-.91-4.18-1.8-8.71-2.3-11.53a110.3,110.3,0,0,1-1.51-11c-.16-2.11-.22-3.87-.23-5.13" transform="translate(-136.82 -41.99)"></path>
      <path class="cls-1 JpknBdgd_121" d="M448.69,225.85c-3.86-2.09-12.74-4.87-17.53-5.06a42.34,42.34,0,0,0-11.77.93,36.36,36.36,0,0,0-10,3.73,40.4,40.4,0,0,0-10.14,8.39,62.39,62.39,0,0,0-6.64,8.39,73.46,73.46,0,0,0-9,20,105,105,0,0,0-4.2,21.21,112.36,112.36,0,0,0-.23,19.7,40.37,40.37,0,0,0,1.86,10.14,35.79,35.79,0,0,0,4,8.27c2.92,4.46,6.09,7,9.78,9.91a59.14,59.14,0,0,0,10.38,6.64,64.07,64.07,0,0,0,7.1,2.91c6.26,2.31,14.13,5.27,17.84,6.76a153.85,153.85,0,0,1,16.06,7.8" transform="translate(-136.82 -41.99)"></path>
      <path class="cls-1 JpknBdgd_122" d="M441.24,345.71c-.21-5.86.95-23.43,1.53-31.74" transform="translate(-136.82 -41.99)"></path>
      <path class="cls-1 JpknBdgd_123" d="M437.36,305.37c-.77,7-1.66,19.73-1.76,21.79-.27,5.79-1.13,12.18-1,15.64" transform="translate(-136.82 -41.99)"></path>
      <path class="cls-1 JpknBdgd_124" d="M450.86,351.25a87.22,87.22,0,0,0-12.65-6.64c-2.68-1.19-7.07-3-7.8-3.27-1.79-.62-6.41-2-6.82-2.15-13.43-4.09-17.19-7.4-17.19-7.4a53.49,53.49,0,0,1-9.85-6.47c-2.83-2.28-5.69-4.58-7.92-8.51s-2.64-7.36-3.26-12.58a76.28,76.28,0,0,1-.24-14,103.79,103.79,0,0,1,1.75-17.13,89.38,89.38,0,0,1,5.59-17.83c2.63-6.08,4.9-11.36,9.91-17,2.71-3.07,6.29-7,12.24-9.33a38.89,38.89,0,0,1,18-1.9,24.52,24.52,0,0,1,7.94,2.11,53.31,53.31,0,0,1,6.71,3.46" transform="translate(-136.82 -41.99)"></path>
      <path class="cls-1 JpknBdgd_125" d="M440,383.86c-.32-1.06-1.16-3.38-1.66-5.46a140.86,140.86,0,0,1-2.27-14.51c-.53-4.09-.73-6-.88-8.39-.12-2-.13-4.42-.15-5.59" transform="translate(-136.82 -41.99)"></path>
      <path class="cls-1 JpknBdgd_126" d="M560.34,191.71c-.47-.16-.57-.21-.58-.29,0-.33,1.6-.78,2.86-1a14.5,14.5,0,0,1,3.55-.12,22.26,22.26,0,0,1,7.52,1.46c.42.17,2.68,1.1,2.56,1.57s-1.59.28-3.26.18c-4.21-.27-4.46-.89-7.46-.94a24.78,24.78,0,0,1-3.44-.34A12.5,12.5,0,0,1,560.34,191.71Z" transform="translate(-136.82 -41.99)"></path>
      <path class="cls-1 JpknBdgd_127" d="M560.3,189.22c-.2-.31,1.29-2.17,3.41-2.75a7.33,7.33,0,0,1,2.8-.13c1.12.1,1.17.28,2.62.52,1.74.29,2,.08,3.45.35a8.25,8.25,0,0,1,2.8.87c2.2,1.29,3.09,3.93,2.84,4.11s-.67-.84-2.23-1.79a7.77,7.77,0,0,0-3.67-1.22c-.76-.05-.65.08-1.44,0-1.64-.09-2-.63-3.59-.87a9.41,9.41,0,0,0-2.62,0,21,21,0,0,0-2.75.52C560.65,189.18,560.38,189.33,560.3,189.22Z" transform="translate(-136.82 -41.99)"></path>
      <path class="cls-1 JpknBdgd_128" d="M561.39,185.68c-.16-.15.76-2.27,2.67-2.93a5.54,5.54,0,0,1,3.41.18,12,12,0,0,0,1.53.52,11.76,11.76,0,0,0,2.66,0,10.67,10.67,0,0,1,2.19.13,6.34,6.34,0,0,1,4,2.45,3.39,3.39,0,0,1,.75,2.05c-.12.06-.46-.69-1.14-1.35-.48-.47-1.22-1-4.06-1.57-.91-.19-.76-.13-4.5-.66a12.19,12.19,0,0,0-4.11-.22,7.29,7.29,0,0,0-2.1.66C561.81,185.36,561.47,185.75,561.39,185.68Z" transform="translate(-136.82 -41.99)"></path>
      <path class="cls-1 JpknBdgd_129" d="M561.83,182a4.37,4.37,0,0,1,3-2.28,5.24,5.24,0,0,1,1.84,0,13.49,13.49,0,0,1,2.09.61,11.42,11.42,0,0,0,2.85.09,13.12,13.12,0,0,1,3.58.57,5.34,5.34,0,0,1,3.1,1.83c.47.67.72,1.53.57,1.62s-.48-.42-1.05-.92a7.52,7.52,0,0,0-3.28-1.57c-.75-.2-.42,0-3.23-.35-1.12-.14-1.86-.23-2.88-.39s-1.28-.26-1.93-.31a7.24,7.24,0,0,0-2.53.09A7.33,7.33,0,0,0,561.83,182Z" transform="translate(-136.82 -41.99)"></path>
      <path class="cls-1 JpknBdgd_130" d="M447.6,359.46c-.21-.27.83-1.4,1.74-2.38a21,21,0,0,1,2.63-2.45,33.05,33.05,0,0,1,2.79-1.92h0s.28.29.53.52c.44.41.55.39.58.52.06.31-.52.63-1.05,1-.75.52-.49.5-1.81,1.63a19.72,19.72,0,0,1-2.44,1.86C449.63,358.82,447.84,359.78,447.6,359.46Z" transform="translate(-136.82 -41.99)"></path>
      <path class="cls-1 JpknBdgd_131" d="M450.1,363.19c-.24-.3,2.37-2.74,2.8-3.14,2.65-2.49,2.62-1.66,4-3a1.73,1.73,0,0,1,1.16-.59c.45,0,1,.27,1,.59s-.43.59-1.16,1.05c0,0-.68.43-2.86,2-1.24.89-1.08.95-2.15,1.69C452,362.37,450.28,363.42,450.1,363.19Z" transform="translate(-136.82 -41.99)"></path>
      <path class="cls-1 JpknBdgd_132" d="M452.08,366.05c-.11-.19.89-.86,3.21-2.68,3.43-2.7,5-4.19,6.06-3.73.07,0,.41.19.46.47s-.57.85-1.22,1.28c-1.58,1-2.89,1.84-3.21,2-1.53.95-1.46,1.08-2.5,1.63S452.21,366.27,452.08,366.05Z" transform="translate(-136.82 -41.99)"></path>
      <path class="cls-1 JpknBdgd_133" d="M454.82,368.85c-.15-.5,1.52-1.16,4.84-3.21,2.73-1.69,4.22-2.87,4.83-2.39a.87.87,0,0,1,.24.7c-.07.7-1,1-2.68,1.87a21.51,21.51,0,0,0-3.79,2c-.65.56-1.06,1.12-1.92,1.28C455.74,369.25,454.92,369.17,454.82,368.85Z" transform="translate(-136.82 -41.99)"></path>
      <path class="cls-1 JpknBdgd_134" d="M455.69,373c-.08-.66,1.23-1.17,3.38-2.5s1.93-1.54,3.5-2.39c.74-.4,4.25-2.31,5.24-1.28A1,1,0,0,1,468,368c-.34.57-1.32.18-2.8.58a19.61,19.61,0,0,0-2.27,1.17c-1.57.86-2.35,1.29-3,1.69a25.39,25.39,0,0,0-2.33,1.57c-.31.32-.62.72-1.05.7A1,1,0,0,1,455.69,373Z" transform="translate(-136.82 -41.99)"></path>
      <path class="cls-1 JpknBdgd_135" d="M561.68,181.22a5.74,5.74,0,0,1,1.52-3.09,4.3,4.3,0,0,1,3-1.16c1.11.1,1.15.72,2.5.93a13.54,13.54,0,0,0,2.69-.17,15.24,15.24,0,0,1,2.27-.24,5.93,5.93,0,0,1,2.79,1,5.85,5.85,0,0,1,1.81,1.93,7.39,7.39,0,0,1,.76,3.49,36.5,36.5,0,0,1-.23,4,47.18,47.18,0,0,0-.59,5c0,.48.06,1.12-.35,1.45s-1.38.08-2-.11a41.08,41.08,0,0,0-4.6-.24c-8.81-.41-11.6-.71-11.77-1.63,0-.15,0-.13.23-.87a14.24,14.24,0,0,0,.35-2.27c.15-1.08.29-.91.76-2.86.09-.37.32-1.36.52-2.62C561.61,182,561.48,182,561.68,181.22Z" transform="translate(-136.82 -41.99)"></path>
      <path class="cls-1 JpknBdgd_136" d="M444.68,357.43a1.77,1.77,0,0,1,1-1c.57-.28,2.17-1.84,5.36-4.95,1-.92,1.61-1.62,2.45-1.51a2.39,2.39,0,0,1,1.22.64c.49.47.42.81.88,1.4a4.6,4.6,0,0,0,1.28,1c1.23.77,1.9.84,2,1.34s-.24.54-.12.93a1.27,1.27,0,0,0,.65.64,11.28,11.28,0,0,1,2.68,2.1c.22.26.1.18.52.76a21.58,21.58,0,0,0,1.92,2.21c1.16,1.28.68,1.35,2,3s2.1,2.57,2.1,2.57c.48.57.88,1,.76,1.51s-.72.69-1.05.82c-1.3.5-2.4,1.45-3.67,2-2.74,1.26-4.11,1.89-5.24,2.56-1.92,1.13-3.21,2.19-3.79,1.75-.14-.1-.11-.2-.35-.94s-.45-1.22-.82-2.09a11.06,11.06,0,0,0-.87-1.81,7.06,7.06,0,0,1-.76-1.11c-.28-.6-.18-.77-.41-1.22-.34-.69-.76-.62-1.28-1.22-.78-.92-.2-1.53-.93-2.45s-1.14-.46-1.75-1.34a8.64,8.64,0,0,1-.76-1.57c-.19-.52-.26-.85-.58-1.05s-.51,0-.93-.18c-.72-.26-1-1.13-1.28-1.8A1.64,1.64,0,0,1,444.68,357.43Z" transform="translate(-136.82 -41.99)"></path>
      <g>
        <path class="cls-1 JpknBdgd_137" d="M157,241c-.75,0-19,.88-19,.88l-.68-18.42,19.45-.71Z" transform="translate(-136.82 -41.99)"></path>
        <path class="cls-1 JpknBdgd_138" d="M20.91,201.75L20.24,177.69L47.68,176.73L48.55,200.97L20.91,201.75Z"></path>
        <path class="cls-1 JpknBdgd_139" d="M48.06,193.08L58.77,192.65L58.51,184.57L47.94,184.86"></path>
        <path class="cls-1 JpknBdgd_140" d="M9.38,196.8L9.16,193.09L12.26,193L12.38,196.62L9.38,196.8Z"></path>
        <path class="cls-1 JpknBdgd_141" d="M9.12,187.12L8.95,183.46L12.05,183.27L12.12,186.98L9.12,187.12Z"></path>
        <path class="cls-1 JpknBdgd_142" d="M137.86,232.33a12,12,0,0,1,2.58,0c.37,0,.92.12,1.13-.17a1.12,1.12,0,0,0,0-.76c-.08-.41-.27-.53-.21-.72s.16-.2.67-.33c.85-.21,1.36-.34,1.6-.07a1.11,1.11,0,0,1,.16.51c0,.2,0,.27,0,.63a1.57,1.57,0,0,0,.09.59c.18.26.67.22.83.21.6-.05,3.19-.22,4.67-.15.94.05,1.86-.15,2.8-.18.09,0,.36,0,.46-.18s0-.36-.17-.94a1.26,1.26,0,0,1-.07-.61c.13-.26.62-.26,1.6-.26.71,0,.89.06.94.18s-.09.24-.17.64a1.22,1.22,0,0,0,.08.82.76.76,0,0,0,.31.35,1,1,0,0,0,.5.1h1" transform="translate(-136.82 -41.99)"></path>
      </g>
      <path class="cls-1 JpknBdgd_143" d="M195.9,233.2c2.74-.5,5.76-1.15,10.63-2.22,13.92-3,20.87-4.56,28-7.92,7.43-3.52,12.05-7.48,19.11-13.52,6.19-5.3,10.27-9.82,18.18-18.65,5.69-6.35,7.65-8.87,18.65-21.9s16.59-19.67,18.18-21c10.91-9.06,22.21-12.45,33.56-15.85,8.48-2.54,18.43-3.75,33.79-6.06,23.23-3.49,24-3.36,34.73-5.83,5.77-1.32,17.7-3.8,35.43-14.21,8.46-5,7.55-5.66,18.18-12.12C469,91.07,477,86.5,494.61,78.55c15.16-6.82,26.94-12.12,43.82-17.71,14.19-4.7,26.43-8.76,43.81-11.19a205.87,205.87,0,0,1,33.57-1.86,203.7,203.7,0,0,1,31.69,3.26c11.08,2.05,19,4.63,35,9.79,19.52,6.33,29.66,10.7,35.08,14.92,10,7.8,11.67,11.39,12.59,13.28,2,4.21,2,5.9,3.49,12.47a62.82,62.82,0,0,1,1.3,11.76" transform="translate(-136.82 -41.99)"></path>
    </g>
  </g>
<style data-made-with="vivus-instant">.JpknBdgd_0{stroke-dasharray:76 78;stroke-dashoffset:77;}.start .JpknBdgd_0{animation:JpknBdgd_draw 32ms linear 0ms forwards;}.JpknBdgd_1{stroke-dasharray:21 23;stroke-dashoffset:22;}.start .JpknBdgd_1{animation:JpknBdgd_draw 9ms linear 32ms forwards;}.JpknBdgd_2{stroke-dasharray:372 374;stroke-dashoffset:373;}.start .JpknBdgd_2{animation:JpknBdgd_draw 158ms linear 42ms forwards;}.JpknBdgd_3{stroke-dasharray:74 76;stroke-dashoffset:75;}.start .JpknBdgd_3{animation:JpknBdgd_draw 31ms linear 200ms forwards;}.JpknBdgd_4{stroke-dasharray:122 124;stroke-dashoffset:123;}.start .JpknBdgd_4{animation:JpknBdgd_draw 52ms linear 232ms forwards;}.JpknBdgd_5{stroke-dasharray:87 89;stroke-dashoffset:88;}.start .JpknBdgd_5{animation:JpknBdgd_draw 37ms linear 284ms forwards;}.JpknBdgd_6{stroke-dasharray:0 2;stroke-dashoffset:1;}.start .JpknBdgd_6{animation:JpknBdgd_draw 0ms linear 322ms forwards;}.JpknBdgd_7{stroke-dasharray:0 2;stroke-dashoffset:1;}.start .JpknBdgd_7{animation:JpknBdgd_draw 0ms linear 322ms forwards;}.JpknBdgd_8{stroke-dasharray:0 2;stroke-dashoffset:1;}.start .JpknBdgd_8{animation:JpknBdgd_draw 0ms linear 323ms forwards;}.JpknBdgd_9{stroke-dasharray:279 281;stroke-dashoffset:280;}.start .JpknBdgd_9{animation:JpknBdgd_draw 119ms linear 323ms forwards;}.JpknBdgd_10{stroke-dasharray:277 279;stroke-dashoffset:278;}.start .JpknBdgd_10{animation:JpknBdgd_draw 118ms linear 442ms forwards;}.JpknBdgd_11{stroke-dasharray:252 254;stroke-dashoffset:253;}.start .JpknBdgd_11{animation:JpknBdgd_draw 107ms linear 560ms forwards;}.JpknBdgd_12{stroke-dasharray:247 249;stroke-dashoffset:248;}.start .JpknBdgd_12{animation:JpknBdgd_draw 105ms linear 668ms forwards;}.JpknBdgd_13{stroke-dasharray:52 54;stroke-dashoffset:53;}.start .JpknBdgd_13{animation:JpknBdgd_draw 22ms linear 773ms forwards;}.JpknBdgd_14{stroke-dasharray:51 53;stroke-dashoffset:52;}.start .JpknBdgd_14{animation:JpknBdgd_draw 22ms linear 796ms forwards;}.JpknBdgd_15{stroke-dasharray:51 53;stroke-dashoffset:52;}.start .JpknBdgd_15{animation:JpknBdgd_draw 22ms linear 818ms forwards;}.JpknBdgd_16{stroke-dasharray:51 53;stroke-dashoffset:52;}.start .JpknBdgd_16{animation:JpknBdgd_draw 22ms linear 840ms forwards;}.JpknBdgd_17{stroke-dasharray:34 36;stroke-dashoffset:35;}.start .JpknBdgd_17{animation:JpknBdgd_draw 14ms linear 862ms forwards;}.JpknBdgd_18{stroke-dasharray:40 42;stroke-dashoffset:41;}.start .JpknBdgd_18{animation:JpknBdgd_draw 17ms linear 877ms forwards;}.JpknBdgd_19{stroke-dasharray:43 45;stroke-dashoffset:44;}.start .JpknBdgd_19{animation:JpknBdgd_draw 18ms linear 894ms forwards;}.JpknBdgd_20{stroke-dasharray:24 26;stroke-dashoffset:25;}.start .JpknBdgd_20{animation:JpknBdgd_draw 10ms linear 913ms forwards;}.JpknBdgd_21{stroke-dasharray:41 43;stroke-dashoffset:42;}.start .JpknBdgd_21{animation:JpknBdgd_draw 17ms linear 924ms forwards;}.JpknBdgd_22{stroke-dasharray:45 47;stroke-dashoffset:46;}.start .JpknBdgd_22{animation:JpknBdgd_draw 19ms linear 941ms forwards;}.JpknBdgd_23{stroke-dasharray:40 42;stroke-dashoffset:41;}.start .JpknBdgd_23{animation:JpknBdgd_draw 17ms linear 961ms forwards;}.JpknBdgd_24{stroke-dasharray:38 40;stroke-dashoffset:39;}.start .JpknBdgd_24{animation:JpknBdgd_draw 16ms linear 978ms forwards;}.JpknBdgd_25{stroke-dasharray:12 14;stroke-dashoffset:13;}.start .JpknBdgd_25{animation:JpknBdgd_draw 5ms linear 995ms forwards;}.JpknBdgd_26{stroke-dasharray:32 34;stroke-dashoffset:33;}.start .JpknBdgd_26{animation:JpknBdgd_draw 14ms linear 1000ms forwards;}.JpknBdgd_27{stroke-dasharray:19 21;stroke-dashoffset:20;}.start .JpknBdgd_27{animation:JpknBdgd_draw 8ms linear 1015ms forwards;}.JpknBdgd_28{stroke-dasharray:33 35;stroke-dashoffset:34;}.start .JpknBdgd_28{animation:JpknBdgd_draw 14ms linear 1023ms forwards;}.JpknBdgd_29{stroke-dasharray:23 25;stroke-dashoffset:24;}.start .JpknBdgd_29{animation:JpknBdgd_draw 10ms linear 1037ms forwards;}.JpknBdgd_30{stroke-dasharray:18 20;stroke-dashoffset:19;}.start .JpknBdgd_30{animation:JpknBdgd_draw 8ms linear 1048ms forwards;}.JpknBdgd_31{stroke-dasharray:15 17;stroke-dashoffset:16;}.start .JpknBdgd_31{animation:JpknBdgd_draw 6ms linear 1056ms forwards;}.JpknBdgd_32{stroke-dasharray:21 23;stroke-dashoffset:22;}.start .JpknBdgd_32{animation:JpknBdgd_draw 9ms linear 1063ms forwards;}.JpknBdgd_33{stroke-dasharray:23 25;stroke-dashoffset:24;}.start .JpknBdgd_33{animation:JpknBdgd_draw 10ms linear 1072ms forwards;}.JpknBdgd_34{stroke-dasharray:15 17;stroke-dashoffset:16;}.start .JpknBdgd_34{animation:JpknBdgd_draw 6ms linear 1082ms forwards;}.JpknBdgd_35{stroke-dasharray:17 19;stroke-dashoffset:18;}.start .JpknBdgd_35{animation:JpknBdgd_draw 7ms linear 1089ms forwards;}.JpknBdgd_36{stroke-dasharray:20 22;stroke-dashoffset:21;}.start .JpknBdgd_36{animation:JpknBdgd_draw 8ms linear 1097ms forwards;}.JpknBdgd_37{stroke-dasharray:13 15;stroke-dashoffset:14;}.start .JpknBdgd_37{animation:JpknBdgd_draw 5ms linear 1105ms forwards;}.JpknBdgd_38{stroke-dasharray:20 22;stroke-dashoffset:21;}.start .JpknBdgd_38{animation:JpknBdgd_draw 8ms linear 1111ms forwards;}.JpknBdgd_39{stroke-dasharray:17 19;stroke-dashoffset:18;}.start .JpknBdgd_39{animation:JpknBdgd_draw 7ms linear 1120ms forwards;}.JpknBdgd_40{stroke-dasharray:15 17;stroke-dashoffset:16;}.start .JpknBdgd_40{animation:JpknBdgd_draw 6ms linear 1128ms forwards;}.JpknBdgd_41{stroke-dasharray:17 19;stroke-dashoffset:18;}.start .JpknBdgd_41{animation:JpknBdgd_draw 7ms linear 1135ms forwards;}.JpknBdgd_42{stroke-dasharray:17 19;stroke-dashoffset:18;}.start .JpknBdgd_42{animation:JpknBdgd_draw 7ms linear 1142ms forwards;}.JpknBdgd_43{stroke-dasharray:17 19;stroke-dashoffset:18;}.start .JpknBdgd_43{animation:JpknBdgd_draw 7ms linear 1150ms forwards;}.JpknBdgd_44{stroke-dasharray:17 19;stroke-dashoffset:18;}.start .JpknBdgd_44{animation:JpknBdgd_draw 7ms linear 1158ms forwards;}.JpknBdgd_45{stroke-dasharray:3 5;stroke-dashoffset:4;}.start .JpknBdgd_45{animation:JpknBdgd_draw 1ms linear 1165ms forwards;}.JpknBdgd_46{stroke-dasharray:9 11;stroke-dashoffset:10;}.start .JpknBdgd_46{animation:JpknBdgd_draw 4ms linear 1167ms forwards;}.JpknBdgd_47{stroke-dasharray:383 385;stroke-dashoffset:384;}.start .JpknBdgd_47{animation:JpknBdgd_draw 163ms linear 1171ms forwards;}.JpknBdgd_48{stroke-dasharray:70 72;stroke-dashoffset:71;}.start .JpknBdgd_48{animation:JpknBdgd_draw 30ms linear 1335ms forwards;}.JpknBdgd_49{stroke-dasharray:124 126;stroke-dashoffset:125;}.start .JpknBdgd_49{animation:JpknBdgd_draw 53ms linear 1365ms forwards;}.JpknBdgd_50{stroke-dasharray:80 82;stroke-dashoffset:81;}.start .JpknBdgd_50{animation:JpknBdgd_draw 34ms linear 1418ms forwards;}.JpknBdgd_51{stroke-dasharray:71 73;stroke-dashoffset:72;}.start .JpknBdgd_51{animation:JpknBdgd_draw 30ms linear 1452ms forwards;}.JpknBdgd_52{stroke-dasharray:20 22;stroke-dashoffset:21;}.start .JpknBdgd_52{animation:JpknBdgd_draw 8ms linear 1483ms forwards;}.JpknBdgd_53{stroke-dasharray:0 2;stroke-dashoffset:1;}.start .JpknBdgd_53{animation:JpknBdgd_draw 0ms linear 1492ms forwards;}.JpknBdgd_54{stroke-dasharray:262 264;stroke-dashoffset:263;}.start .JpknBdgd_54{animation:JpknBdgd_draw 111ms linear 1492ms forwards;}.JpknBdgd_55{stroke-dasharray:260 262;stroke-dashoffset:261;}.start .JpknBdgd_55{animation:JpknBdgd_draw 110ms linear 1604ms forwards;}.JpknBdgd_56{stroke-dasharray:237 239;stroke-dashoffset:238;}.start .JpknBdgd_56{animation:JpknBdgd_draw 101ms linear 1715ms forwards;}.JpknBdgd_57{stroke-dasharray:232 234;stroke-dashoffset:233;}.start .JpknBdgd_57{animation:JpknBdgd_draw 99ms linear 1816ms forwards;}.JpknBdgd_58{stroke-dasharray:49 51;stroke-dashoffset:50;}.start .JpknBdgd_58{animation:JpknBdgd_draw 21ms linear 1915ms forwards;}.JpknBdgd_59{stroke-dasharray:48 50;stroke-dashoffset:49;}.start .JpknBdgd_59{animation:JpknBdgd_draw 20ms linear 1936ms forwards;}.JpknBdgd_60{stroke-dasharray:48 50;stroke-dashoffset:49;}.start .JpknBdgd_60{animation:JpknBdgd_draw 20ms linear 1957ms forwards;}.JpknBdgd_61{stroke-dasharray:48 50;stroke-dashoffset:49;}.start .JpknBdgd_61{animation:JpknBdgd_draw 20ms linear 1978ms forwards;}.JpknBdgd_62{stroke-dasharray:32 34;stroke-dashoffset:33;}.start .JpknBdgd_62{animation:JpknBdgd_draw 14ms linear 1999ms forwards;}.JpknBdgd_63{stroke-dasharray:38 40;stroke-dashoffset:39;}.start .JpknBdgd_63{animation:JpknBdgd_draw 16ms linear 2013ms forwards;}.JpknBdgd_64{stroke-dasharray:40 42;stroke-dashoffset:41;}.start .JpknBdgd_64{animation:JpknBdgd_draw 17ms linear 2030ms forwards;}.JpknBdgd_65{stroke-dasharray:22 24;stroke-dashoffset:23;}.start .JpknBdgd_65{animation:JpknBdgd_draw 9ms linear 2047ms forwards;}.JpknBdgd_66{stroke-dasharray:39 41;stroke-dashoffset:40;}.start .JpknBdgd_66{animation:JpknBdgd_draw 17ms linear 2057ms forwards;}.JpknBdgd_67{stroke-dasharray:42 44;stroke-dashoffset:43;}.start .JpknBdgd_67{animation:JpknBdgd_draw 18ms linear 2074ms forwards;}.JpknBdgd_68{stroke-dasharray:37 39;stroke-dashoffset:38;}.start .JpknBdgd_68{animation:JpknBdgd_draw 16ms linear 2092ms forwards;}.JpknBdgd_69{stroke-dasharray:36 38;stroke-dashoffset:37;}.start .JpknBdgd_69{animation:JpknBdgd_draw 15ms linear 2108ms forwards;}.JpknBdgd_70{stroke-dasharray:11 13;stroke-dashoffset:12;}.start .JpknBdgd_70{animation:JpknBdgd_draw 5ms linear 2124ms forwards;}.JpknBdgd_71{stroke-dasharray:30 32;stroke-dashoffset:31;}.start .JpknBdgd_71{animation:JpknBdgd_draw 13ms linear 2129ms forwards;}.JpknBdgd_72{stroke-dasharray:17 19;stroke-dashoffset:18;}.start .JpknBdgd_72{animation:JpknBdgd_draw 7ms linear 2142ms forwards;}.JpknBdgd_73{stroke-dasharray:32 34;stroke-dashoffset:33;}.start .JpknBdgd_73{animation:JpknBdgd_draw 14ms linear 2150ms forwards;}.JpknBdgd_74{stroke-dasharray:21 23;stroke-dashoffset:22;}.start .JpknBdgd_74{animation:JpknBdgd_draw 9ms linear 2164ms forwards;}.JpknBdgd_75{stroke-dasharray:17 19;stroke-dashoffset:18;}.start .JpknBdgd_75{animation:JpknBdgd_draw 7ms linear 2173ms forwards;}.JpknBdgd_76{stroke-dasharray:14 16;stroke-dashoffset:15;}.start .JpknBdgd_76{animation:JpknBdgd_draw 6ms linear 2181ms forwards;}.JpknBdgd_77{stroke-dasharray:20 22;stroke-dashoffset:21;}.start .JpknBdgd_77{animation:JpknBdgd_draw 8ms linear 2187ms forwards;}.JpknBdgd_78{stroke-dasharray:22 24;stroke-dashoffset:23;}.start .JpknBdgd_78{animation:JpknBdgd_draw 9ms linear 2196ms forwards;}.JpknBdgd_79{stroke-dasharray:14 16;stroke-dashoffset:15;}.start .JpknBdgd_79{animation:JpknBdgd_draw 6ms linear 2206ms forwards;}.JpknBdgd_80{stroke-dasharray:16 18;stroke-dashoffset:17;}.start .JpknBdgd_80{animation:JpknBdgd_draw 7ms linear 2212ms forwards;}.JpknBdgd_81{stroke-dasharray:18 20;stroke-dashoffset:19;}.start .JpknBdgd_81{animation:JpknBdgd_draw 8ms linear 2220ms forwards;}.JpknBdgd_82{stroke-dasharray:12 14;stroke-dashoffset:13;}.start .JpknBdgd_82{animation:JpknBdgd_draw 5ms linear 2228ms forwards;}.JpknBdgd_83{stroke-dasharray:18 20;stroke-dashoffset:19;}.start .JpknBdgd_83{animation:JpknBdgd_draw 8ms linear 2233ms forwards;}.JpknBdgd_84{stroke-dasharray:16 18;stroke-dashoffset:17;}.start .JpknBdgd_84{animation:JpknBdgd_draw 7ms linear 2241ms forwards;}.JpknBdgd_85{stroke-dasharray:14 16;stroke-dashoffset:15;}.start .JpknBdgd_85{animation:JpknBdgd_draw 6ms linear 2248ms forwards;}.JpknBdgd_86{stroke-dasharray:16 18;stroke-dashoffset:17;}.start .JpknBdgd_86{animation:JpknBdgd_draw 7ms linear 2255ms forwards;}.JpknBdgd_87{stroke-dasharray:16 18;stroke-dashoffset:17;}.start .JpknBdgd_87{animation:JpknBdgd_draw 7ms linear 2262ms forwards;}.JpknBdgd_88{stroke-dasharray:16 18;stroke-dashoffset:17;}.start .JpknBdgd_88{animation:JpknBdgd_draw 7ms linear 2269ms forwards;}.JpknBdgd_89{stroke-dasharray:16 18;stroke-dashoffset:17;}.start .JpknBdgd_89{animation:JpknBdgd_draw 7ms linear 2276ms forwards;}.JpknBdgd_90{stroke-dasharray:3 5;stroke-dashoffset:4;}.start .JpknBdgd_90{animation:JpknBdgd_draw 1ms linear 2284ms forwards;}.JpknBdgd_91{stroke-dasharray:9 11;stroke-dashoffset:10;}.start .JpknBdgd_91{animation:JpknBdgd_draw 4ms linear 2285ms forwards;}.JpknBdgd_92{stroke-dasharray:40 42;stroke-dashoffset:41;}.start .JpknBdgd_92{animation:JpknBdgd_draw 17ms linear 2290ms forwards;}.JpknBdgd_93{stroke-dasharray:52 54;stroke-dashoffset:53;}.start .JpknBdgd_93{animation:JpknBdgd_draw 22ms linear 2307ms forwards;}.JpknBdgd_94{stroke-dasharray:43 45;stroke-dashoffset:44;}.start .JpknBdgd_94{animation:JpknBdgd_draw 18ms linear 2330ms forwards;}.JpknBdgd_95{stroke-dasharray:54 56;stroke-dashoffset:55;}.start .JpknBdgd_95{animation:JpknBdgd_draw 23ms linear 2348ms forwards;}.JpknBdgd_96{stroke-dasharray:43 45;stroke-dashoffset:44;}.start .JpknBdgd_96{animation:JpknBdgd_draw 18ms linear 2372ms forwards;}.JpknBdgd_97{stroke-dasharray:54 56;stroke-dashoffset:55;}.start .JpknBdgd_97{animation:JpknBdgd_draw 23ms linear 2390ms forwards;}.JpknBdgd_98{stroke-dasharray:42 44;stroke-dashoffset:43;}.start .JpknBdgd_98{animation:JpknBdgd_draw 18ms linear 2414ms forwards;}.JpknBdgd_99{stroke-dasharray:52 54;stroke-dashoffset:53;}.start .JpknBdgd_99{animation:JpknBdgd_draw 22ms linear 2432ms forwards;}.JpknBdgd_100{stroke-dasharray:311 313;stroke-dashoffset:312;}.start .JpknBdgd_100{animation:JpknBdgd_draw 132ms linear 2455ms forwards;}.JpknBdgd_101{stroke-dasharray:0 2;stroke-dashoffset:1;}.start .JpknBdgd_101{animation:JpknBdgd_draw 0ms linear 2587ms forwards;}.JpknBdgd_102{stroke-dasharray:304 306;stroke-dashoffset:305;}.start .JpknBdgd_102{animation:JpknBdgd_draw 129ms linear 2588ms forwards;}.JpknBdgd_103{stroke-dasharray:0 2;stroke-dashoffset:1;}.start .JpknBdgd_103{animation:JpknBdgd_draw 0ms linear 2717ms forwards;}.JpknBdgd_104{stroke-dasharray:44 46;stroke-dashoffset:45;}.start .JpknBdgd_104{animation:JpknBdgd_draw 19ms linear 2718ms forwards;}.JpknBdgd_105{stroke-dasharray:55 57;stroke-dashoffset:56;}.start .JpknBdgd_105{animation:JpknBdgd_draw 23ms linear 2737ms forwards;}.JpknBdgd_106{stroke-dasharray:47 49;stroke-dashoffset:48;}.start .JpknBdgd_106{animation:JpknBdgd_draw 20ms linear 2761ms forwards;}.JpknBdgd_107{stroke-dasharray:58 60;stroke-dashoffset:59;}.start .JpknBdgd_107{animation:JpknBdgd_draw 25ms linear 2781ms forwards;}.JpknBdgd_108{stroke-dasharray:47 49;stroke-dashoffset:48;}.start .JpknBdgd_108{animation:JpknBdgd_draw 20ms linear 2806ms forwards;}.JpknBdgd_109{stroke-dasharray:58 60;stroke-dashoffset:59;}.start .JpknBdgd_109{animation:JpknBdgd_draw 25ms linear 2827ms forwards;}.JpknBdgd_110{stroke-dasharray:47 49;stroke-dashoffset:48;}.start .JpknBdgd_110{animation:JpknBdgd_draw 20ms linear 2852ms forwards;}.JpknBdgd_111{stroke-dasharray:57 59;stroke-dashoffset:58;}.start .JpknBdgd_111{animation:JpknBdgd_draw 24ms linear 2872ms forwards;}.JpknBdgd_112{stroke-dasharray:551 553;stroke-dashoffset:552;}.start .JpknBdgd_112{animation:JpknBdgd_draw 234ms linear 2897ms forwards;}.JpknBdgd_113{stroke-dasharray:156 158;stroke-dashoffset:157;}.start .JpknBdgd_113{animation:JpknBdgd_draw 66ms linear 3131ms forwards;}.JpknBdgd_114{stroke-dasharray:537 539;stroke-dashoffset:538;}.start .JpknBdgd_114{animation:JpknBdgd_draw 228ms linear 3198ms forwards;}.JpknBdgd_115{stroke-dasharray:160 162;stroke-dashoffset:161;}.start .JpknBdgd_115{animation:JpknBdgd_draw 68ms linear 3427ms forwards;}.JpknBdgd_116{stroke-dasharray:157 159;stroke-dashoffset:158;}.start .JpknBdgd_116{animation:JpknBdgd_draw 67ms linear 3495ms forwards;}.JpknBdgd_117{stroke-dasharray:182 184;stroke-dashoffset:183;}.start .JpknBdgd_117{animation:JpknBdgd_draw 77ms linear 3562ms forwards;}.JpknBdgd_118{stroke-dasharray:62 64;stroke-dashoffset:63;}.start .JpknBdgd_118{animation:JpknBdgd_draw 26ms linear 3640ms forwards;}.JpknBdgd_119{stroke-dasharray:70 72;stroke-dashoffset:71;}.start .JpknBdgd_119{animation:JpknBdgd_draw 30ms linear 3667ms forwards;}.JpknBdgd_120{stroke-dasharray:29 31;stroke-dashoffset:30;}.start .JpknBdgd_120{animation:JpknBdgd_draw 12ms linear 3697ms forwards;}.JpknBdgd_121{stroke-dasharray:219 221;stroke-dashoffset:220;}.start .JpknBdgd_121{animation:JpknBdgd_draw 93ms linear 3710ms forwards;}.JpknBdgd_122{stroke-dasharray:32 34;stroke-dashoffset:33;}.start .JpknBdgd_122{animation:JpknBdgd_draw 14ms linear 3803ms forwards;}.JpknBdgd_123{stroke-dasharray:38 40;stroke-dashoffset:39;}.start .JpknBdgd_123{animation:JpknBdgd_draw 16ms linear 3817ms forwards;}.JpknBdgd_124{stroke-dasharray:205 207;stroke-dashoffset:206;}.start .JpknBdgd_124{animation:JpknBdgd_draw 87ms linear 3834ms forwards;}.JpknBdgd_125{stroke-dasharray:35 37;stroke-dashoffset:36;}.start .JpknBdgd_125{animation:JpknBdgd_draw 15ms linear 3921ms forwards;}.JpknBdgd_126{stroke-dasharray:35 37;stroke-dashoffset:36;}.start .JpknBdgd_126{animation:JpknBdgd_draw 15ms linear 3937ms forwards;}.JpknBdgd_127{stroke-dasharray:41 43;stroke-dashoffset:42;}.start .JpknBdgd_127{animation:JpknBdgd_draw 17ms linear 3952ms forwards;}.JpknBdgd_128{stroke-dasharray:40 42;stroke-dashoffset:41;}.start .JpknBdgd_128{animation:JpknBdgd_draw 17ms linear 3970ms forwards;}.JpknBdgd_129{stroke-dasharray:38 40;stroke-dashoffset:39;}.start .JpknBdgd_129{animation:JpknBdgd_draw 16ms linear 3987ms forwards;}.JpknBdgd_130{stroke-dasharray:22 24;stroke-dashoffset:23;}.start .JpknBdgd_130{animation:JpknBdgd_draw 9ms linear 4004ms forwards;}.JpknBdgd_131{stroke-dasharray:23 25;stroke-dashoffset:24;}.start .JpknBdgd_131{animation:JpknBdgd_draw 10ms linear 4014ms forwards;}.JpknBdgd_132{stroke-dasharray:24 26;stroke-dashoffset:25;}.start .JpknBdgd_132{animation:JpknBdgd_draw 10ms linear 4024ms forwards;}.JpknBdgd_133{stroke-dasharray:24 26;stroke-dashoffset:25;}.start .JpknBdgd_133{animation:JpknBdgd_draw 10ms linear 4034ms forwards;}.JpknBdgd_134{stroke-dasharray:30 32;stroke-dashoffset:31;}.start .JpknBdgd_134{animation:JpknBdgd_draw 13ms linear 4045ms forwards;}.JpknBdgd_135{stroke-dasharray:65 67;stroke-dashoffset:66;}.start .JpknBdgd_135{animation:JpknBdgd_draw 28ms linear 4058ms forwards;}.JpknBdgd_136{stroke-dasharray:75 77;stroke-dashoffset:76;}.start .JpknBdgd_136{animation:JpknBdgd_draw 32ms linear 4086ms forwards;}.JpknBdgd_137{stroke-dasharray:76 78;stroke-dashoffset:77;}.start .JpknBdgd_137{animation:JpknBdgd_draw 32ms linear 4119ms forwards;}.JpknBdgd_138{stroke-dasharray:104 106;stroke-dashoffset:105;}.start .JpknBdgd_138{animation:JpknBdgd_draw 44ms linear 4151ms forwards;}.JpknBdgd_139{stroke-dasharray:30 32;stroke-dashoffset:31;}.start .JpknBdgd_139{animation:JpknBdgd_draw 13ms linear 4196ms forwards;}.JpknBdgd_140{stroke-dasharray:14 16;stroke-dashoffset:15;}.start .JpknBdgd_140{animation:JpknBdgd_draw 6ms linear 4209ms forwards;}.JpknBdgd_141{stroke-dasharray:14 16;stroke-dashoffset:15;}.start .JpknBdgd_141{animation:JpknBdgd_draw 6ms linear 4216ms forwards;}.JpknBdgd_142{stroke-dasharray:27 29;stroke-dashoffset:28;}.start .JpknBdgd_142{animation:JpknBdgd_draw 11ms linear 4222ms forwards;}.JpknBdgd_143{stroke-dasharray:624 626;stroke-dashoffset:625;}.start .JpknBdgd_143{animation:JpknBdgd_draw 265ms linear 4234ms forwards;}@keyframes JpknBdgd_draw{100%{stroke-dashoffset:0;}}@keyframes JpknBdgd_fade{0%{stroke-opacity:1;}95.40229885057471%{stroke-opacity:1;}100%{stroke-opacity:0;}}</style></svg>
