<svg xmlns="http://www.w3.org/2000/svg" viewBox="0 0 362.06 304.13"><defs><style>.cls-1,.cls-2,.cls-3{fill:none;stroke:#000;}.cls-1,.cls-2{stroke-miterlimit:10;}.cls-2,.cls-3{stroke-dasharray:2;}.cls-3{stroke-miterlimit:20;stroke-width:0.75px;}</style></defs><title>mala</title><g id="bolso"><path class="cls-1" d="M376.09,120.13s.19-1.15,1.85-1.09,5.81.39,5.81.39.77,1,1.09,1.53,1.34,2.87,1.34,2.87a2.3,2.3,0,0,1,.25.7,20.46,20.46,0,0,1,.13,3.13c0,1.15,2.26,30.17,2.26,30.17a32.58,32.58,0,0,1,0,8.08c-.6,3.75-2.9,14.05-6,17.71s-5.79,8-12.43,11.57a46.57,46.57,0,0,1-16.25,5.19c-4.34.68-23.66,1.19-23.66,1.19l-13.66.26-18.13.38-63.83.13-65.83-1.62-38-1-18.72-1.44s-12-1-18.21-4.6-8.34-5.28-10.3-7.49S78,176.3,78,176.3s-2.13-7.07-2.13-10.56,2.3-23.23,2.3-23.23l3.15-16.85-.17-1.49a1.13,1.13,0,0,1,.76-1.53C83.11,122.34,376.09,120.13,376.09,120.13Z" transform="translate(-56.87 -61.4)"/></g><g id="contorno_mochila" data-name="contorno mochila"><path class="cls-1" d="M64.22,139.79a60,60,0,0,1,2-12.77C68.68,116.6,77.11,110.2,78,109.53c4.81-3.55,9.38-4.62,15.83-6.13a81,81,0,0,1,17.36-2c19-.64,37.86-2.23,56.81-2.93,25.93-1,23.66-1.17,43.53-1.79,13.27-.42,22.72-.59,39.19-.9,23.8-.43,24.89-.24,54.26-.76,10-.18,20-.15,30-.51,9.74-.35,19.49,0,29.23-.26a54.3,54.3,0,0,1,14.3,1.15c3.87.87,8.21,1.88,12.89,5.11a31.56,31.56,0,0,1,9.7,11,37.67,37.67,0,0,1,3.32,9.57,75.72,75.72,0,0,1,2.05,13.92c.22,3.34.21,5.83.21,6.8,0,2.66.39,12.69,1.19,32.77.42,10.65.77,18.68,1,24.43.52,11.91,1,21.86,1.19,26.29,2.43,51,3.64,76.5,4.77,84.26s1.08,12.37,1,21.7a32.71,32.71,0,0,1-5.87,18.9,28.68,28.68,0,0,1-7.92,8c-3.43,2.26-6.89,3.35-12.34,4.34C381,364,374.82,363.92,364.82,364c-8.76.11,2.57.09-19.41.43-16.52.25-27.23.34-27.23.34-23.3.19-34.95.28-46.13.17-15.29-.15-18.13-.43-45.19-.77-4.22,0-9.13-.11-15.75-.17-7.05-.06-22.94-.19-41.36-.08-16.11.09-24.17.13-34.38.42-13.39.38-26.79-.59-40.17-.08a46.52,46.52,0,0,1-12.34-1.19,31,31,0,0,1-9.62-3.75,32.6,32.6,0,0,1-6.47-5.53,31.77,31.77,0,0,1-4.51-5.62,30.36,30.36,0,0,1-3.06-6.89,41,41,0,0,1-1.7-11.41c-.28-6.41-.06-10.18.08-16.76.13-6,0-4.79.09-15.06,0-2,.09-9,.34-19.49.16-6.78.36-13.76,1.27-38.47.61-16.42.91-24.63,1.2-31,1.13-25.5,1.31-20.9,1.53-30.89.14-6.45.33-20.46,1.61-31.24C63.7,146.36,64,143.36,64.22,139.79Z" transform="translate(-56.87 -61.4)"/></g><g id="PICOTADO-BOLSO"><path class="cls-2" d="M87.45,122.55c-.18,1.43-.45,3.58-.83,6.19-.88,6-1.3,7.59-2.24,13.66-.81,5.32-1.22,8.87-1.4,10.6a69.91,69.91,0,0,0-.64,9.57c.08,3.81.14,6.38,1.28,9.52a23,23,0,0,0,5.55,8.36A30.91,30.91,0,0,0,100,187.66a35.87,35.87,0,0,0,7.21,2.11c11.92,2.26,23,1.95,39.26,2.36,3.4.08,1.84.07,8.17.25,17.46.51,27.57.56,39.38.77,15.38.27,13.08.43,31.34.83,10.9.23,30,.57,53.62.53,14.69,0,25.41-.16,31-.25,14.1-.23,10.76-.33,16.34-.35,8.71,0,15,.24,24-.85a50.4,50.4,0,0,0,8.68-1.7,33.33,33.33,0,0,0,11.06-4.93,28.45,28.45,0,0,0,8.43-9.54c2.27-4.28,2.76-8,3.23-11.91.38-3.13.26-6.19,0-12.17-.49-11.49-1.06-9.59-1.61-19.66a33.08,33.08,0,0,0-1.71-9.7,31,31,0,0,0-1.78-4.17" transform="translate(-56.87 -61.4)"/></g><g id="PICOTADO-ALCA"><path class="cls-3" d="M197.81,67a85.37,85.37,0,0,0,1.28,9.26c.18.93.37,1.85.57,2.74" transform="translate(-56.87 -61.4)"/><path class="cls-3" d="M196.47,80.49a79.2,79.2,0,0,1,9.57-3.7,88.7,88.7,0,0,1,25.79-3.7,90.76,90.76,0,0,1,17,1.53,86.79,86.79,0,0,1,15.7,4.53" transform="translate(-56.87 -61.4)"/><path class="cls-3" d="M267.38,68.17a21.08,21.08,0,0,0-1.72,4.28,21.33,21.33,0,0,0-.77,6.64" transform="translate(-56.87 -61.4)"/><path class="cls-3" d="M271.21,76.91c1.64,1.22,3,2.24,3.83,2.94a16.94,16.94,0,0,0,4,2.75,11,11,0,0,0,2.88.76" transform="translate(-56.87 -61.4)"/><path class="cls-3" d="M271.53,81.89a23.06,23.06,0,0,1,3.38,2.24c1.27,1,1.69,1.53,2.75,2.23a11.4,11.4,0,0,0,3.57,1.53" transform="translate(-56.87 -61.4)"/><path class="cls-3" d="M194.62,82.66a11.83,11.83,0,0,1-1.34,1.21,10.84,10.84,0,0,1-2.62,1.47" transform="translate(-56.87 -61.4)"/><path class="cls-3" d="M194.11,77.23a12.63,12.63,0,0,1-4.73,3.45" transform="translate(-56.87 -61.4)"/></g><g id="contorno-mochila"><path class="cls-1" d="M69.2,127.79c1.24-3.31,3.92-9.71,9.76-14.17,0,0,4.83-4.25,13.86-6.34a63.05,63.05,0,0,1,10.55-1.11c14-.73,26.32-1.3,40.38-1.87,7.54-.31-.25-.07,26.94-1.41,28.86-1.42,43.72-2.15,62.17-2.8,21.2-.76,12.72-.19,57.57-1.41,19.23-.52,38.49.11,57.71-.77,5.34-.24,10.32,0,20.29.52a47.31,47.31,0,0,1,11.49,1.66,29,29,0,0,1,11,5.1,27.28,27.28,0,0,1,7,8.43,28.33,28.33,0,0,1,2.56,6.12,42.32,42.32,0,0,1,.89,5.11c.21,1.49.52,3.63.77,6.26.56,6,.67,12.75.7,14.49,0,2.1.28,8,.76,19.78.31,7.49.43,9.09.79,17,.55,11.95.48,13.31,1,25.79.15,3.47.47,10.56.94,19.49.22,4.15.62,11.54,1.36,23.49.94,15.1,1.34,20,2,30.8,1.69,26,1.5,29.22,2,35.92.06.73.25,2.94.3,5.91a74,74,0,0,1-.25,8.69,36.82,36.82,0,0,1-5.32,15.27A29.71,29.71,0,0,1,395,357.45a23.6,23.6,0,0,1-7.66,2A316.37,316.37,0,0,1,347.88,361c-4.45,0-12.41.27-27.06.13-13.77-.13-22.85-.23-44.34-.09-14.92.1-16.75,0-25.71,0-14.51,0-23.57-.25-30.63-.34-20.71-.25-20.72.29-54.47.51-58.27.39-50.13.34-59.58.09-8.58-.23-11.69.25-20.17-1.11a33.94,33.94,0,0,1-9.25-3.27,27.41,27.41,0,0,1-9.51-7.41,28.24,28.24,0,0,1-5.56-11.42,43.53,43.53,0,0,1-1-10.22c-.17-12.63.07-19.92.19-23.1.57-15,.25-30,.83-45.39.64-17.1,1.65-30.95,2.38-60.38.43-17.32,2.13-34.47,2.55-51.91a114.91,114.91,0,0,1,1.62-15.83A21.74,21.74,0,0,1,69.2,127.79Z" transform="translate(-56.87 -61.4)"/></g><g id="frente"><path class="cls-1" d="M384.52,181.53c1.72,12.54,2.78,24.55,3.44,32.17.9,10.24,1.2,17.61,1.92,30.77,1.06,19.4.72,16.8,1.53,29.62.69,10.92.8,21.77,1.79,32.68a73.24,73.24,0,0,1-.64,14.55,29,29,0,0,1-2,7.53,26.15,26.15,0,0,1-8.17,10.72,28.59,28.59,0,0,1-10.6,5A42.36,42.36,0,0,1,360.26,346c-7,.14-13.95.76-20.93.64-10.73-.2-21.45-.21-32.17-.51-10.09-.29-28.46-.8-45.58-1.15-17.43-.36-15.66-.19-30.89-.51-24-.52-26.72-.91-45.7-1.28-11.46-.22-23.5-.46-39.71-.38-15.47.06-30.51-1.28-46.08-2.13a30.86,30.86,0,0,1-11.62-3.24,23.28,23.28,0,0,1-7.53-6.25c-4.15-5.26-4.86-10.86-5.49-15.83a52.1,52.1,0,0,1,.13-12.77c1-14.68,2.64-29.74,3.83-44.72.61-7.64,1.36-16,2.47-27.4,1-10.28,1.52-18.12,3-33.45.37-3.82,1-7.69,1.2-9.79" transform="translate(-56.87 -61.4)"/><path class="cls-1" d="M231.77,202.43" transform="translate(-56.87 -61.4)"/><g id="contorno"><path class="cls-1" d="M382.22,184.85c1.09,12.07,1.94,22.27,2.55,30,1.19,14.93,1.78,22.39,2.3,32.43.61,11.81.27,10.4,1,25.91.43,8.89.23,17.84,1.28,26.68a105.2,105.2,0,0,1,.25,18.51,30,30,0,0,1-1.14,6.51,26.41,26.41,0,0,1-5,9.71,25.7,25.7,0,0,1-11.36,7.53C367.09,344,363,344,358.35,344c-15.67,0-23.51.08-25.28,0-6.3-.26-13.56-.43-28.08-.76-7.74-.18-6.93-.11-32.94-.51l-20.77-.34c-12.3-.23-22-.41-33.53-.77-18.66-.58-16.7-.84-28.85-1.11-14-.31-13.41.1-34.81-.17-13.92-.17-21.59-.44-28.72-.81-11.53-.59-3.59-.36-15.83-1-6.24-.33-9.75-.44-14.68-1.78-6.63-1.8-9.18-4-9.83-4.6a20.09,20.09,0,0,1-5.24-8.3c-1.72-4.49-2.11-8.61-2-15.32.08-7.28.63-11.45,1.66-22.21.29-3,.69-7.63,1.49-16.85.37-4.21.62-7.32,1.87-22.89,2.21-27.53,2.17-27.37,2.56-31.49.28-3.08,1.17-12.36,2-21.45.06-.65.36-3.79.42-4.43" transform="translate(-56.87 -61.4)"/></g></g><g id="PICOTADO-FRENTE"><line class="cls-3" x1="103.35" y1="140.69" x2="94.42" y2="278.64"/><line class="cls-3" x1="175.18" y1="143.75" x2="174.59" y2="280.52"/><line class="cls-3" x1="249.4" y1="142.73" x2="253.23" y2="281.94"/></g><g id="etiqueta"><polygon class="cls-1" points="266.76 101.43 303.52 100.22 304.23 115.15 267.2 116.3 266.76 101.43"/><polygon class="cls-1" points="268.48 102.83 301.99 101.75 302.63 113.37 268.8 114.33 268.48 102.83"/></g><g id="direito"><path class="cls-1" d="M407.24,140.3c2.23,11.2,4.93,26.82,6.9,45.7,1.2,11.54,1.71,20.28,2.29,30.38,1.3,22.31.37,20.53,1.66,50.43.38,8.8-.1,17.62.26,26.42a63.09,63.09,0,0,1-.77,13.41,59.33,59.33,0,0,1-1.79,7.66" transform="translate(-56.87 -61.4)"/></g><g id="direito-2" data-name="direito"><path class="cls-1" d="M408.74,147.54a10.87,10.87,0,0,1,4.59,3.74,11.58,11.58,0,0,1,1.36,4.42c.48,2.66.83,4.61.08,6.9A11.22,11.22,0,0,1,412,167" transform="translate(-56.87 -61.4)"/><path class="cls-1" d="M409,149.23a23.63,23.63,0,0,1,2.73,5.45,16.62,16.62,0,0,1,.51,5.79,19.85,19.85,0,0,1-.78,3.86" transform="translate(-56.87 -61.4)"/></g><g id="alça"><path class="cls-1" d="M195.88,84c-1-.6-.28-2.18-.6-7.32-.13-2.07,0-4.16-.34-6.21A3.62,3.62,0,0,1,195,68c.82-1.46,3.27-1.51,4-1.53,5.95-.2,11.67-2.58,17.62-3,18.4-1.24,15.9-1.73,21.27-1.62A103.26,103.26,0,0,1,256.48,64c9.31,2,11.89,4.08,14.29,4.09.19,0,.91,0,1.19.42.39.59-.35,1.43-1,3.32a20.93,20.93,0,0,0-.68,2.73,33,33,0,0,0-.59,3.74c-.37,3.53.16,4.29-.43,4.77-1,.83-3.39-.86-6.47-2.39-1.76-.87-4.49-1.72-9.95-3.4-9.34-2.88-18.69-2.37-23.24-2.13-6.7.36-11,.6-16.25,2.55-8.92,3.31-13.37,5-13.62,5.11C198.66,83.5,196.92,84.68,195.88,84Z" transform="translate(-56.87 -61.4)"/></g><g id="alca"><path class="cls-1" d="M272,70a43.56,43.56,0,0,1,5.93,1.79c5,1.89,5.85,3.25,6.13,3.76a6.11,6.11,0,0,1,.57,3.71" transform="translate(-56.87 -61.4)"/><path class="cls-1" d="M271,73A32.52,32.52,0,0,0,277,77.87a31.74,31.74,0,0,0,3.25,1.79" transform="translate(-56.87 -61.4)"/><path class="cls-1" d="M286.22,88c-1.66-2.83-2.69-5-3.83-6.28a23.52,23.52,0,0,1-3.7-5.23c-.35-.61-.91-1.64-.51-2.17s1.22-.31,1.27-.3c1.08.2,1.64,1.23,2.39,2.39,1.43,2.21,1.28,1.35,3.23,4.21,2.24,3.28,2.09,2.93,3,4.38a5.86,5.86,0,0,1,1,2.77c0,.66-.15.88-.25,1-.41.34-1.18,0-1.54-.09A3.23,3.23,0,0,1,286.22,88Z" transform="translate(-56.87 -61.4)"/><path class="cls-1" d="M283.73,84.32a4,4,0,0,0-.38,2c.07.9.52,2.52,1.72,2.81a2.05,2.05,0,0,0,1.53-.32" transform="translate(-56.87 -61.4)"/><path class="cls-1" d="M269.88,82.85A30.75,30.75,0,0,0,275.11,87a10.88,10.88,0,0,0,4.41,1.91,8.65,8.65,0,0,0,3.89-.38" transform="translate(-56.87 -61.4)"/></g><g id="alca-2" data-name="alca"><path class="cls-1" d="M287.21,83.55c.08-.16,1.5.44,2,.67,2.15.91,3.62,1.55,3.61,2.37a2,2,0,0,1-.38.89c-.21.29-.39.56-.67.61s-.46-.07-1.15-.71a10.55,10.55,0,0,1-1.06-1c-.86-1-.83-1.29-1.53-2C287.54,83.83,287.17,83.64,287.21,83.55Z" transform="translate(-56.87 -61.4)"/><path class="cls-1" d="M294.26,87.45c-.38-.3-.91-.71-.83-1.09s.89-.55,1-.57a3.74,3.74,0,0,1,2.43.57c.73.44,2.59.59,6.32.9,6.08.49,11.42.38,11.42.38,5-.11,5.74-.46,8.62-.07,3.23.45,6.52,1.47,6.45,1.92s-1.87.24-5.3.19c-5.06-.07-10.13,0-15.19.06,0,0-2.53,0-10-.63a18.84,18.84,0,0,1-3.25-.77A5.29,5.29,0,0,1,294.26,87.45Z" transform="translate(-56.87 -61.4)"/><path class="cls-1" d="M194.62,69.7c-2.48,1-4.49,1.67-5.8,2.11-3.21,1.06-4.73,1.41-5.81,2.93-.27.38-1.25,1.76-.7,2.94.45,1,1.84,1.56,3.44,1.34" transform="translate(-56.87 -61.4)"/><path class="cls-1" d="M194.56,72.64c-.78.9-1.67,1.84-2.68,2.81a41.61,41.61,0,0,1-3.45,2.93" transform="translate(-56.87 -61.4)"/><path class="cls-1" d="M194.24,71a25.06,25.06,0,0,1-6.83,2.68c-.87.19-2.52.49-3.32,1.79a2.08,2.08,0,0,0-.32,1.59,2.42,2.42,0,0,0,2.3,1.47" transform="translate(-56.87 -61.4)"/><path class="cls-1" d="M194.88,73.66a12.3,12.3,0,0,1-1.47,2.3A9.57,9.57,0,0,1,190,78.77a8.79,8.79,0,0,1-1.6.57" transform="translate(-56.87 -61.4)"/></g><g id="acessorio-alca"><path class="cls-1" d="M186.71,74c-.13,1.09-.26,2.19-.38,3.28-.25,2.12-.39,2.9-.51,4.44-.1,1.16,0,1-.15,2.16a35.11,35.11,0,0,1-.51,4.3c-.15.63-.18,1.29-.34,1.91-.13.47-.24.77-.09.92s.82.06,1.21-.26c.6-.48.58-1.25.77-2.74.11-.86.31-1.7.45-2.56.54-3.54.65-3.42.89-5.42.19-1.55.27-2.81.32-3.51.07-1.11.11-2.08.13-2.87" transform="translate(-56.87 -61.4)"/><path class="cls-1" d="M195.65,84a14.29,14.29,0,0,1-2,1.72,15.07,15.07,0,0,1-2.81,1.6" transform="translate(-56.87 -61.4)"/><path class="cls-1" d="M182.62,78.16c.81,1.71,2.1,4.73,2.91,6.45" transform="translate(-56.87 -61.4)"/><path class="cls-1" d="M187.16,86.17a3.08,3.08,0,0,1,2.23,0A3.13,3.13,0,0,1,191,87.73a3.32,3.32,0,0,1,.13,2.4" transform="translate(-56.87 -61.4)"/><path class="cls-1" d="M187.19,87.32a2,2,0,0,1,3,1.82,2.26,2.26,0,0,1-.45,1.34" transform="translate(-56.87 -61.4)"/></g><g id="alca-3" data-name="alca"><path class="cls-1" d="M185.37,86.21a8.75,8.75,0,0,1-1.45,1.41c-.88.67-1.26.68-1.4.68a1.8,1.8,0,0,1-.56-.13,3.06,3.06,0,0,1-.51-.26,4,4,0,0,1-.68-.51c-.61-.52-2.71.67-4.29,1.28a18.83,18.83,0,0,1-3.41.81,31.93,31.93,0,0,1-5.28.51c-3.42.14-2.5.38-9.7,1.06-3.32.32-5.07.42-7.49,1.41-1.32.54-3.08,1.45-3,1.79s1.49,0,2.9-.17c2.65-.39-.42.2,8.08-.77,5.72-.65,4.86-.66,10.47-1.32,3.93-.46,6-.64,8.89-1.62,1.46-.48,4.28-1.84,5.07-2.21" transform="translate(-56.87 -61.4)"/></g><g id="alca-4" data-name="alca"><path class="cls-1" d="M110.94,101.06c5.37-1.12,12-2.41,19.58-3.66,2.53-.41,9-1.45,17.79-2.55,14.35-1.79,25.3-2.56,36.42-3.32C192.14,91,202,90.44,213.58,90" transform="translate(-56.87 -61.4)"/><path class="cls-1" d="M240.2,88.34c10.25.41,18.16.77,23.42,1,5.55.27,10.34.52,17.17.51,4.24,0,5-.1,10.28-.19,6.37-.11,7.72,0,25.34.13,9.91.08,12.48.07,17.68.25,2.19.08,6.38.4,14.75,1a51.65,51.65,0,0,1,10,1.53,45.29,45.29,0,0,1,4.66,1.47" transform="translate(-56.87 -61.4)"/></g><g id="fecho"><path class="cls-1" d="M213.84,88.47l3.12.25" transform="translate(-56.87 -61.4)"/><path class="cls-1" d="M213.58,88.79a2.4,2.4,0,0,0,.27,1.3,3.89,3.89,0,0,0,.24.36,4.16,4.16,0,0,0,2.81.83,7.11,7.11,0,0,0,3.58-.45c.29-.13,1.14-.52,1.08-.83s-1.8-.44-2.55-.45c-1.28,0-4.45-.13-5.17,0" transform="translate(-56.87 -61.4)"/><path class="cls-1" d="M231,90.34a1.72,1.72,0,0,1,.34-1.11c.65-.81,2.29-.9,3.95,0" transform="translate(-56.87 -61.4)"/><path class="cls-1" d="M229.75,91.57a8.52,8.52,0,0,1,.94-3.31c.38-.36.66-.9,3.7-1.2a4,4,0,0,1,2.43.43,4.25,4.25,0,0,1,2.12,1.45" transform="translate(-56.87 -61.4)"/><g id="fecho-2" data-name="fecho"><path class="cls-1" d="M225.77,89.36a1.55,1.55,0,0,1-1.08-1.47,1.38,1.38,0,0,1,.83-1.21,1.56,1.56,0,0,1,1.91.89,1.43,1.43,0,0,1-.25,1.6A1.47,1.47,0,0,1,225.77,89.36Z" transform="translate(-56.87 -61.4)"/><path class="cls-1" d="M223.73,91.28a4.56,4.56,0,0,1-.64-3.83,3.45,3.45,0,0,1,2.24-2.36,3.3,3.3,0,0,1,3.19,1.14,4.83,4.83,0,0,1,.83,3.2,8.85,8.85,0,0,1-.19,2" transform="translate(-56.87 -61.4)"/><path class="cls-1" d="M216.2,91.4a2.15,2.15,0,0,0,.25,1.79c.57.67,1.49.32,4.34.32a24.44,24.44,0,0,0,4,0c1.07-.15,1.09-.29,2.3-.45a20,20,0,0,1,3.38-.12c1.46,0,1.67.17,2.88.12a4,4,0,0,0,2.36-.51,3,3,0,0,0,1.08-1.85" transform="translate(-56.87 -61.4)"/></g><g id="fecho-3" data-name="fecho"><path class="cls-1" d="M231.33,87.57l1.15-5.74,7.91.06-.7,5.68a2,2,0,0,1-1,2.05,6.6,6.6,0,0,1-3.77.95c-1.34-.12-2.29-.06-2.68-.44s-.83-.77-.83-.77" transform="translate(-56.87 -61.4)"/><polyline class="cls-1" points="156.84 27.64 159.46 21.9 167.06 22.03 164.97 28.05"/><path class="cls-1" d="M216.45,89.74a3.28,3.28,0,0,1,2-1.59A3.53,3.53,0,0,1,222,89.94a4,4,0,0,1,.51,2.61" transform="translate(-56.87 -61.4)"/></g></g></svg>