<svg xmlns="http://www.w3.org/2000/svg" viewBox="0 0 457.05 595.23"><defs><style>.cls-1,.cls-10,.cls-11,.cls-2,.cls-3,.cls-4,.cls-5,.cls-6,.cls-7,.cls-8,.cls-9{fill:none;stroke:#000;}.cls-1,.cls-10,.cls-11,.cls-2,.cls-3,.cls-4,.cls-5,.cls-6,.cls-9{stroke-miterlimit:10;}.cls-2{stroke-linecap:round;stroke-dasharray:0 3;}.cls-3{stroke-dasharray:3.82 3.82;}.cls-4{stroke-dasharray:4.17 4.17;}.cls-5{stroke-dasharray:3.51 3.51;}.cls-6{stroke-dasharray:3.82 3.82;}.cls-7,.cls-8{stroke-miterlimit:444;}.cls-8{stroke-dasharray:2.99 2.99;}.cls-9{stroke-dasharray:3 3;}.cls-10{stroke-dasharray:3;}.cls-11{stroke-dasharray:2.96 2.96;}</style></defs><title>versaofinal</title><g id="mochila_conto" data-name="mochila conto"><g id="Layer_18" data-name="Layer 18"><path class="cls-1" d="M138.8,661.92c-2.06-1.54-4.83-4.92-8.25-9.27-4.13-5.25-6.19-7-8-9.83s-7.1-10.59-6.41-17.25" transform="translate(-85.01 -81.29)"/><path class="cls-1" d="M116.21,626c8.4-.67,28.36-1.56,45.84-2.37,18.19-.84,32.86-1.1,46-1.23,51.23-.53,54.56,1.06,84.72.41s22.78-2.13,79.51-4.94c23.15-1.15,46.13-2.27,73.86-2.48,10.88-.08,31.58-.09,51.27,0,7.09,0,12.89.13,16.87.16" transform="translate(-85.01 -81.29)"/><path class="cls-1" d="M488.91,656.93s-7.86-1.92-12.52-3.42c-4.13-1.32-12.26-2.22-14.56-2-13,1.34-26.34.3-39.39,1.43s-25.88,2-38.81,3.06c-21.67,1.74-23.9.7-74.15,1.63-44.32.83-48.24,1.74-68.36,1-17.08-.6-34-2.42-51-4.08-1.06-.1-5.11-.5-10.57-.61-9.43-.19-15-.3-21.43,1.43-4.24,1.15-5.37,2.17-15.14,5.15-1.79.55-3.47,1.11-4.47,1.4" transform="translate(-85.01 -81.29)"/><path class="cls-1" d="M514.18,615.37a51.49,51.49,0,0,1-4.92,14.77,70.25,70.25,0,0,1-3.62,6.11c-4.24,6.65-4.62,5.74-10.21,13.59a37,37,0,0,1-6.55,7" transform="translate(-85.01 -81.29)"/><path class="cls-1" d="M482.29,662.71c1.67,0,6.81-5.62,6.75-6.14" transform="translate(-85.01 -81.29)"/><path class="cls-1" d="M138.72,661.81a8.93,8.93,0,0,0,2.8,2,9.88,9.88,0,0,0,3.8,1c8.68.69,17.07,3.45,25.74,4.23,21,1.88,18.85,2.57,40.19,4.22,3.89.3,17.5,1.32,39.1,2.06,6.54.22,30,1,62.13.62,6.61-.08,32.25-.41,66-2.17,48.81-2.54,42.22-4.29,59-4.12,0,0,9.34.1,32.48-3.29a70.47,70.47,0,0,0,12.6-3.71" transform="translate(-85.01 -81.29)"/></g><path class="cls-1" d="M116.17,626.31a165.61,165.61,0,0,1-2.79-23.46c-.66-10.37-.77-16.59-1.18-23-.86-13.65-.74-24.19.52-42.19,1.41-20.37.83-56,5.3-102.39.72-7.46,2.13-19.81,4.06-46.37,2.37-32.69,5.25-51.3,7.24-63.65,7.56-46.92,14.18-70.53,25.38-87.84,18.14-28.07,48.13-40.87,55.82-44.65,18.56-9.1,30-9.52,61.27-13.24,13.58-1.62,39.18-2.31,72.18-1.73,30.57.53,46.48,1.38,64.8,9.5,25.1,11.12,42.87,28.53,48.72,35.43,17.58,20.74,23.83,40.24,33,72,8.82,30.5,8.35,53.76,13.27,93,3.63,29,5.35,50.39,7.07,72.14,6.31,79.77,4.68,119.09,3.75,135.87-.45,8.17-.17,15.48-.54,20" transform="translate(-85.01 -81.29)"/><path class="cls-1" d="M533.81,423.2c3,1.16,4.21,3.49,3.62,4.25-2.16,2.76-9.12,5.69-13.44,7.13a35,35,0,0,1-10.5,1.84,33.35,33.35,0,0,1-4.41-.22" transform="translate(-85.01 -81.29)"/><path class="cls-1" d="M536.27,439a7.92,7.92,0,0,1-2.62,4c-3,2.91-6.87,3.88-10.32,4.75a46.32,46.32,0,0,1-10.49,1.3c-1.14,0-2.08,0-2.75,0" transform="translate(-85.01 -81.29)"/><path class="cls-1" d="M537.54,427.18c-.09.78-.58,11.18-1.34,12.15" transform="translate(-85.01 -81.29)"/><path class="cls-1" d="M526.73,598.43c-2.76,7.22-8.94,13.1-9.66,14.08a44.59,44.59,0,0,1-3,3.58" transform="translate(-85.01 -81.29)"/><path class="cls-1" d="M537.87,535.23c-.94,8.65-3.12,19.84-3.12,22.51,0,.81-6.65,36.85-8,40.74" transform="translate(-85.01 -81.29)"/><path class="cls-1" d="M536.72,437.19a34.75,34.75,0,0,1,3.88,9.46,41.63,41.63,0,0,1,.88,11.85c-.62,15.82-1.12,20.53-1.12,20.53,0,24.35-.87,50-2.5,56.28" transform="translate(-85.01 -81.29)"/><path class="cls-1" d="M86.45,441.53a46.35,46.35,0,0,0,13.47,6.23c3,.74,6.14,1.93,10.79,2.16,2.36.11,4.34.12,5.73.1" transform="translate(-85.01 -81.29)"/><path class="cls-1" d="M90.43,436.85c-.17,1-4.53,3.41-4.63,6.8a57.56,57.56,0,0,0,.22,7.42c0,1.5,0,3.12.23,4.61a2.1,2.1,0,0,0,.2.68c.39.77,1.61,1,2,1.12a62.07,62.07,0,0,0,10.13,3.24c4.23.78,6.34,1.18,7.24,1.29a74.85,74.85,0,0,0,9.84.62" transform="translate(-85.01 -81.29)"/><path class="cls-1" d="M86.31,456.14a18,18,0,0,0-.76,4c-.25,4.14.77,15,1,17.35.35,3.95.11,3.2.51,9.65.2,3.22.93,9.41,1,19.8.22,18.8-.4,16.75.33,26.79.36,5.08,13.38,78.2,16.94,87,2.06,5.13,9.22,5.34,10.78,5.61" transform="translate(-85.01 -81.29)"/><path class="cls-1" d="M176.07,253.69c4.82-7.39,14.36-22.21,31.45-33,21.5-13.6,42.27-16.38,51-17.42,4.75-.57,12.82-.72,29-1,19.12-.35,20,.25,36.93-.14,16.41-.39,19.61-1,33-.87,11.32.15,17,.22,23.32,1.3A97.66,97.66,0,0,1,412.3,214c19.7,11.32,30.11,26.62,35.19,34.27,11.38,17.13,15.23,32.38,19.84,51.41,5.34,22,5.29,26.93,6.52,61.63.63,17.86,1.38,18.87,2.46,41,1.34,27.36.87,23.47,4.93,82.37,2,29.32,3.87,41.61,4.41,48.45.35,4.31,3.13,23.78,4.75,35.18,1.56,11,7,40.89,7.17,46.94" transform="translate(-85.01 -81.29)"/><path class="cls-1" d="M134.42,625c2.19-8.88,4.48-67.57,5-72.74.3-2.82,1.52-27.54,2.17-36,.37-4.79,3-49.87,3-50.87.43-14.69.83-22.87,2.61-50.11.32-5.05,3.85-44.81,5.36-56.17,2.6-19.72,10-89.71,23.6-105.7" transform="translate(-85.01 -81.29)"/><path class="cls-1" d="M92.86,407.85c-.3,1.89-.76,4-1,6.64-.56,6.89-2,25.64-1.46,29.59" transform="translate(-85.01 -81.29)"/><path class="cls-1" d="M198.58,172.47c-10.65,3.4-33.71,20.5-42.83,31.62-1.76,2.14-6.19,7-9.23,11-4,5.14-6,6.77-12.28,19.35-4.82,9.61-5,10.1-7.38,15-6.52,13.36-7.47,21.67-11.3,31.21S111.29,296,109.48,302a176,176,0,0,0-4.56,19.24c-5.08,27.1-9.73,73.41-12.08,86.95" transform="translate(-85.01 -81.29)"/><path class="cls-1" d="M533.7,430.22c.46-3.2-.05-9.71-.4-13.48-.71-7.7-1.48-8.89-2.12-19.73-.38-6.51-.56-8.84-1.19-16.64-.75-9.16-1.74-14.16-2-19.44a373,373,0,0,0-4.73-37.62,220.73,220.73,0,0,0-7.62-31.44c-1.19-3.74-6.6-20.83-11.51-35.75-2.17-6.61-6.08-15.74-10.43-25.57-4.69-10.64-11.35-19.5-17.74-28.1-8.4-11.31-14.23-14.21-22.81-19.95-2.24-1.51-27.72-14.23-48.95-22.34" transform="translate(-85.01 -81.29)"/><path class="cls-1" d="M366.46,151.24c2.25.41,35,7.44,38,9" transform="translate(-85.01 -81.29)"/><path class="cls-1" d="M198.45,172.52c5.89-2.39,49.22-15,64.54-17.45,5.64-.91,11.87-2.4,13.83-2.64,16.14-2,25.76-3.4,36.06-3.23,7.57.12,34.16-1.87,53.8,2.09" transform="translate(-85.01 -81.29)"/></g><g id="centro"><path class="cls-1" d="M315.14,609.59c-.22-3.28-.51-7.6-.81-12.66-.39-6.53-.86-14.53-1.2-24.52s-.14-10.57-.54-18.68c-.32-6.56-.72-11.89-1-15.34-.7-9.34-.93-9.87-1.52-17.5-.78-10.17-1-18.1-1.19-22.46-.09-2.83-.12-4.19-.33-18.36-.21-14.47-.32-21.73-.32-22.68-.07-14.22.28-14.95.21-28.52,0-12.11-.34-11.27-.43-23.76-.09-11.79.1-20.86.33-31.53.32-15.35.57-17.47.65-27.87.07-9.67.24-12.77.11-18" transform="translate(-85.01 -81.29)"/><path class="cls-1" d="M309,324.89c.8,12.16,1,18.26,1.25,25.86.26,8.39.34,15.25.44,23.19.14,11.83.14,22,.14,22.89,0,8.6-.06,10.15,0,16.56.08,7.63.2,9,.29,16.28.11,8.94-.05,9.32,0,18.72,0,8.11.16,8.61.44,24.48.23,13.54.12,12.12.28,19.58.15,6.42.39,13.11.87,26.5.18,4.86.47,12.84.87,22.9.22,5.41.33,7.89.73,17.85.52,13.08.78,19.62.87,23,.17,6.62.29,16.17,0,27.94" transform="translate(-85.01 -81.29)"/></g><g id="rede"><path id="rede-2" data-name="rede" class="cls-1" d="M536.23,439.51c.53,3.17,1.48,6.75,1.81,10.3.6,6.32,0,80.1-.17,85.42" transform="translate(-85.01 -81.29)"/><path id="rede-3" data-name="rede" class="cls-1" d="M533.48,443.36c1.67,9.66,1.45,17.91,2,25.13.45,6,.16,14.17-.21,24.74-.34,9.64-.3,59-.73,65.6" transform="translate(-85.01 -81.29)"/><path id="rede-4" data-name="rede" class="cls-1" d="M530.12,445.35c.93,5.73,1,12.86,1.71,21.28a211,211,0,0,1,.28,23c-.11,3.95-.22,7.07-.82,22.35-.34,8.8-.46,64.49-1.13,70.58" transform="translate(-85.01 -81.29)"/><path id="rede-5" data-name="rede" class="cls-1" d="M526.65,446.51c.56,3.06.45,8.11.73,14.07.54,11.56.83,21.08.71,26.27-.55,22.36-.29,41.26-.22,54.33,0,2.49.19,15,.33,27.43,0,4.06-1.5,27.69-1.47,29.82" transform="translate(-85.01 -81.29)"/><path id="rede-6" data-name="rede" class="cls-1" d="M522.87,447.86c.19,8.8.39,16,.55,21,.2,6.74.29,8.6.32,12.2.08,8.72.46,15,.22,21-.3,7.39-.31,15.55.11,33.81.18,8,.39,10,.65,21.38.28,12.4-.35,15.78-.43,19.66-.2,8.71-.53,23.12-1.09,28.08" transform="translate(-85.01 -81.29)"/><path id="rede-7" data-name="rede" class="cls-1" d="M517.52,448.48c.24,2.29.53,6.39.72,10.65.32,7.21.58,12.28.8,21.17.24,10,.52,9.77.58,14.33,0,4.73.33,5.6.76,14.9.14,3.21.24,6.31.43,12.53.17,5.56,0,10.12.11,16.06.15,7.49.51,13,.54,18.72,0,8.18,0,14.33,0,18.58a169.34,169.34,0,0,1-.76,18.36c-.43,5.9-.58,12.53-1,15.74" transform="translate(-85.01 -81.29)"/><path id="rede-8" data-name="rede" class="cls-1" d="M513.53,448.84c.07,2.75.69,8,.93,13.28.43,9.83.48,11.18.86,18.9.32,6.34.46,11.08,1.2,19.77.82,9.63.46,9.1.71,15.44a170.45,170.45,0,0,1,.54,17.07c0,5.65.14,8.43.16,10.85.07,8.45.17,10.13.22,16.63,0,4.36.33,7.75.16,14.64-.38,15.79-.75,12.91-.76,20.73a96.78,96.78,0,0,1-.65,11.24,43.4,43.4,0,0,1-1.52,7.23" transform="translate(-85.01 -81.29)"/><path id="rede-9" data-name="rede" class="cls-1" d="M115.75,466.47c-4.47-.4-27.37-5.43-30-7.05" transform="translate(-85.01 -81.29)"/><path id="rede-10" data-name="rede" class="cls-1" d="M89,457.64c.06,9.34.76,22.09,1.36,28.78.55,6.19.54,13.38.87,23.49.3,9.23-1.17,33.7-.14,40.36" transform="translate(-85.01 -81.29)"/><path id="rede-11" data-name="rede" class="cls-1" d="M93,459.29c.65,5.53.54,17.14.89,25.13.28,6.41.88,13.14,1.11,21.87.09,3.78-.58,7.42-.22,22,.2,8.23.81,43.15,1.41,49" transform="translate(-85.01 -81.29)"/><path id="rede-12" data-name="rede" class="cls-1" d="M97.29,460.58c-.12,2.91.46,12.42.46,18,0,11.47,1.07,19.38,1.14,24,.32,21.38.87,40.15.81,52.65,0,2.38.72,12.73.51,24.66-.07,4.18.55,19.83.52,21.87" transform="translate(-85.01 -81.29)"/><path id="rede-13" data-name="rede" class="cls-1" d="M102.12,461.39c-.17,8.41.37,20.42.43,25.19.09,6.48,0,9.06.14,12.51.35,8.37.14,12.48.35,18.19.27,7.06.25,15.69.45,33.07.09,7.68.27,9.83,0,20.72-.25,11.86-.27,15.22-.19,18.93.18,8.33.77,23.72,1.27,28.46" transform="translate(-85.01 -81.29)"/><path id="rede-14" data-name="rede" class="cls-1" d="M106.65,462.23c-.22,2.19-.43,10.77-.35,14.85.14,7.11-.08,11.9.28,20.36.4,9.52.44,9.41.4,13.77,0,4.52.11,5.52.11,14.53,0,3.06,0,6.29-.15,12.24-.15,5.31.18,10.52.08,16.2-.14,7.16,0,12.49-.08,17.92,0,7.83,0,13.52.08,17.57.07,12.57.23,15.92.36,17.86.38,5.65.9,13.92,1.37,17.06" transform="translate(-85.01 -81.29)"/><path id="rede-15" data-name="rede" class="cls-1" d="M110.13,462.59c-.06,2.63-.12,12.62.07,17.71.36,9.41.33,10.61.51,17.93.15,6.06-.2,10.39-.2,18.7,0,9.25-.1,9.7-.33,15.77-.1,2.88-.35,4.54-.32,17.07,0,5.41-.36,8.16-.38,10.47-.07,8.09.09,8.53,0,14.74,0,4.17.29,7.73.44,14.32.34,15.1.59,11.47.59,19,0,3,.43,6.34.66,10.91a35.86,35.86,0,0,0,.59,6.59" transform="translate(-85.01 -81.29)"/><path id="rede-16" data-name="rede" class="cls-1" d="M115.61,623.05c-.21.22-4.59-.79-5.26-.87a34.57,34.57,0,0,1-5.14-1.92" transform="translate(-85.01 -81.29)"/><path id="rede-17" data-name="rede" class="cls-1" d="M115.13,619.27a29.8,29.8,0,0,1-5.57-.37c-.87-.15-4.83-1.94-5.4-2" transform="translate(-85.01 -81.29)"/><path id="rede-18" data-name="rede" class="cls-1" d="M114.64,615.25c-.53.47-4.11.33-5.43.34s-4.78-1.14-5.43-1.15" transform="translate(-85.01 -81.29)"/><path id="rede-19" data-name="rede" class="cls-1" d="M114,611.81c-.56.5-4.7.67-5.81.51-1.87-.28-4.33-.67-5.23-.72" transform="translate(-85.01 -81.29)"/><path class="cls-1" d="M113.71,609c-.71.5-4.52.42-5.9.26-1.64-.2-4.57-1.13-5.5-1.16" transform="translate(-85.01 -81.29)"/><path class="cls-1" d="M113.28,601.46c-1.17.61-5.21.73-7.51.9a31.31,31.31,0,0,1-4.89-.37" transform="translate(-85.01 -81.29)"/><path class="cls-1" d="M113.59,605.21c-.92.26-4.69.43-5.85.57-1.81.23-4.88-1-6.28-1.06" transform="translate(-85.01 -81.29)"/><path class="cls-1" d="M113.08,598.6c-1,.5-4.51.42-6.34.52a39.86,39.86,0,0,1-6.64-.73" transform="translate(-85.01 -81.29)"/><path class="cls-1" d="M112.85,595.63a42.48,42.48,0,0,1-5.81.55c-1.93.06-6-.79-7.48-.87" transform="translate(-85.01 -81.29)"/><path class="cls-1" d="M112.88,592.36c-.83.18-4,.18-5.12.36-2.25.35-7.42-.43-8.84-.69" transform="translate(-85.01 -81.29)"/><path class="cls-1" d="M112.53,589.35c-1.57.15-5,.3-6.69.38-1.48.06-6-.48-7.37-.49" transform="translate(-85.01 -81.29)"/><path class="cls-1" d="M112.32,585.72a57.59,57.59,0,0,1-6.9,1c-1.55.11-6.35-.37-7.77-.24" transform="translate(-85.01 -81.29)"/><path class="cls-1" d="M112.13,582.57a33.3,33.3,0,0,1-6.41.93c-3,.21-6.42-.17-8.6-.15" transform="translate(-85.01 -81.29)"/><path class="cls-1" d="M112,579.14c-2.7.79-6.24.78-9.84,1.26-1.35.18-4.36-.3-5.54-.29" transform="translate(-85.01 -81.29)"/><path class="cls-1" d="M111.92,576c-2,.63-5.69.54-8.3.79s-5.42.44-7.43.48" transform="translate(-85.01 -81.29)"/><path class="cls-1" d="M111.69,572.42c-2.23.36-5.71.55-8,.89-2.52.38-6,.09-8.48.26" transform="translate(-85.01 -81.29)"/><path class="cls-1" d="M111.68,568.84c-2.08.87-5.43.91-8.46,1.14-2.76.2-6.4.06-8.36,0" transform="translate(-85.01 -81.29)"/><path class="cls-1" d="M111.6,565.3a35.68,35.68,0,0,1-8.06,1.38c-2.63.24-7.24-.29-9.36,0" transform="translate(-85.01 -81.29)"/><path class="cls-1" d="M111.69,562.11c-2.18.54-5.33.73-7.88,1.25-2.32.46-8.17-.44-10.23,0" transform="translate(-85.01 -81.29)"/><path class="cls-1" d="M111.78,559.41c-1.82.91-6.21,1.19-8.71,1.5-2.27.28-8.33-.38-10.17-.27" transform="translate(-85.01 -81.29)"/><path class="cls-1" d="M111.72,556.57c-2.24,1-6.84,1.1-10.12,1-1.52,0-7.74.31-8.89.48" transform="translate(-85.01 -81.29)"/><path class="cls-1" d="M111.7,554.07c-2.37.79-6,.5-9,.88-1.24.16-9.47,0-10.57.22" transform="translate(-85.01 -81.29)"/><path class="cls-1" d="M112,551.12c-1.77.85-8.08.92-10.37,1.22s-8.25-.23-9.94.2" transform="translate(-85.01 -81.29)"/><path class="cls-1" d="M112.16,548.56c-1.91,1-7.41.73-9.81,1.15-2.16.38-9.3-.21-11.19.38" transform="translate(-85.01 -81.29)"/><path class="cls-1" d="M112.34,545.54c-2.28.55-7.62,1-9.94,1.29-2.66.36-9.61-.41-11.68,0" transform="translate(-85.01 -81.29)"/><path class="cls-1" d="M112.5,543c-1.82.91-8.26.52-10.46.88-3.06.5-9.37-.93-11.84-.11" transform="translate(-85.01 -81.29)"/><path class="cls-1" d="M112.61,540.3c-2.39.5-8.5.63-10.79.92-3.17.39-9.65-.58-12.24-.09" transform="translate(-85.01 -81.29)"/><path class="cls-1" d="M112.7,537.89c-1.73.89-8.34.11-10.54.41-3.69.5-9.92-.38-12.78.31" transform="translate(-85.01 -81.29)"/><path class="cls-1" d="M113,534.65c-1.92.12-11,.6-12.81.68-4.91.22-8.24-.66-11.41-.74" transform="translate(-85.01 -81.29)"/><path class="cls-1" d="M113.06,530.79c-1.31.85-8.06.51-9.86.85-4.91.92-11.45-.67-14.7-.29" transform="translate(-85.01 -81.29)"/><path class="cls-1" d="M113.3,526.74a31.62,31.62,0,0,1-9.49,2.1c-3.89.12-13-.58-15.51-.81" transform="translate(-85.01 -81.29)"/><path class="cls-1" d="M113.3,524c-1.61.76-9.35,1.78-11.41,1.95-5.23.41-10.43-.7-14.11-.61" transform="translate(-85.01 -81.29)"/><path class="cls-1" d="M113.53,520.91c-1.69.76-7.55,1.37-9.68,1.3-5-.17-12.61,0-15.82-.21" transform="translate(-85.01 -81.29)"/><path class="cls-1" d="M113.66,517.17c-.79.29-3.3.83-4.83,1.22-1.82.46-4.49.68-11.52.9-1.19,0-7.07-.07-9-.32" transform="translate(-85.01 -81.29)"/><path class="cls-1" d="M113.61,513.58a93.59,93.59,0,0,1-12,1.79c-3.47.27-10.63.3-13.47.16" transform="translate(-85.01 -81.29)"/><path class="cls-1" d="M113.68,510.69c-3.77.6-9,1.6-13.49,1.53-3-.05-9.28.19-11.91.09" transform="translate(-85.01 -81.29)"/><path class="cls-1" d="M113.73,507.34a119.94,119.94,0,0,1-15,1.67c-2.44.05-8.45.17-10.6,0" transform="translate(-85.01 -81.29)"/><path class="cls-1" d="M114.06,504.53c-3.59.29-8.67,1.1-12.91,1.26-3.27.13-10.12.67-13.06-.09" transform="translate(-85.01 -81.29)"/><path class="cls-1" d="M113.8,501.43a75.4,75.4,0,0,1-14.63,1c-2.57-.06-8.64-.2-10.93-.45" transform="translate(-85.01 -81.29)"/><path class="cls-1" d="M114.17,498.86c-3,.34-7.29.62-10.83.67-4.14.05-11.78-.4-15.24-.74" transform="translate(-85.01 -81.29)"/><path class="cls-1" d="M114.24,496.16c-4,.23-9.31.83-14,.09-3.1-.48-10-.79-12.71-1.26" transform="translate(-85.01 -81.29)"/><path class="cls-1" d="M114.35,493.86c-2.77.07-6.19.29-9.31.1a170,170,0,0,1-17.63-2.39" transform="translate(-85.01 -81.29)"/><path class="cls-1" d="M114.4,491.79c-2.45,0-5.82,0-8.52-.24A175.48,175.48,0,0,1,87,488.42" transform="translate(-85.01 -81.29)"/><path class="cls-1" d="M114.33,489.07c-4.43-.4-9.12-.64-14-1.46-3.11-.52-10.47-2.06-13.34-2.68" transform="translate(-85.01 -81.29)"/><path class="cls-1" d="M114.66,486A113.65,113.65,0,0,1,101.39,485c-4-.46-11.71-3-14.69-4" transform="translate(-85.01 -81.29)"/><path class="cls-1" d="M114.6,483.7a80.56,80.56,0,0,1-13.54-1.58,105,105,0,0,1-14.34-4.61" transform="translate(-85.01 -81.29)"/><path class="cls-1" d="M114.94,481.24c-4.11-.29-7.71-.6-9.93-1.37-1.64-.57-4.67-1-11-2.7-1.27-.35-7.06-2.53-7.77-2.72" transform="translate(-85.01 -81.29)"/><path class="cls-1" d="M114.78,476.57a44.43,44.43,0,0,1-11.87-1.1,150.28,150.28,0,0,1-16.82-5.39" transform="translate(-85.01 -81.29)"/><path class="cls-1" d="M115,473.43a51.2,51.2,0,0,1-12-1.21C98,471,89,467.85,85.77,466.68" transform="translate(-85.01 -81.29)"/><path class="cls-1" d="M115.53,469.76a66.38,66.38,0,0,1-11.62-1.83c-3.36-.89-9.86-2.64-10.59-2.73-2-.24-6.57-1.46-7.79-1.7" transform="translate(-85.01 -81.29)"/><path class="cls-1" d="M514.26,609.26a2.51,2.51,0,0,0,1.45.86,16.1,16.1,0,0,0,3.57,0" transform="translate(-85.01 -81.29)"/><path class="cls-1" d="M514.37,606.39a12.69,12.69,0,0,0,2.34.7,41,41,0,0,0,5.2-.16" transform="translate(-85.01 -81.29)"/><path class="cls-1" d="M514.18,602a16,16,0,0,0,3,1.65c1.16.54,5.5.86,6.71.37" transform="translate(-85.01 -81.29)"/><path class="cls-1" d="M514.42,598.42a18.71,18.71,0,0,0,3.47,1.5,28.11,28.11,0,0,0,7.63,1.21" transform="translate(-85.01 -81.29)"/><path class="cls-1" d="M514.71,595.55a20,20,0,0,0,3.83,1.22,47.42,47.42,0,0,0,8.31,1" transform="translate(-85.01 -81.29)"/><path class="cls-1" d="M515,589.09a17,17,0,0,0,6,1.39c1.36.1,6.5.5,7.48.35" transform="translate(-85.01 -81.29)"/><path class="cls-1" d="M514.76,592.19a30.78,30.78,0,0,0,3.41.72c2,.32,8.18,1.18,9.78,1" transform="translate(-85.01 -81.29)"/><path class="cls-1" d="M515.16,585.84a47.46,47.46,0,0,0,6.21,1.09,40.17,40.17,0,0,0,7.74.54" transform="translate(-85.01 -81.29)"/><path class="cls-1" d="M515.13,582.76a37.29,37.29,0,0,0,4.41.72c2.16.22,8.56,1.22,10.25,1.13" transform="translate(-85.01 -81.29)"/><path class="cls-1" d="M515.42,579.38a20.44,20.44,0,0,0,3.33.79c2.52.37,10,1.38,11.64,1.38" transform="translate(-85.01 -81.29)"/><path class="cls-1" d="M515.32,576.32c1.77.16,3.62.73,5.47.95,1.66.2,8.72,1,10.3,1.26" transform="translate(-85.01 -81.29)"/><path class="cls-1" d="M515.56,572.82c1.85.41,3.83.78,5.94,1.08,1.74.26,8.69.93,10.28,1.07" transform="translate(-85.01 -81.29)"/><path class="cls-1" d="M515.51,569.33c1.4.5,3.46.64,5.19,1a76.74,76.74,0,0,0,11.64,1.44" transform="translate(-85.01 -81.29)"/><path class="cls-1" d="M515.56,565.55a40.9,40.9,0,0,0,10.21,2.38c1.52.18,5.84.77,7.17.79" transform="translate(-85.01 -81.29)"/><path class="cls-1" d="M515.6,562.26a59,59,0,0,0,7.8,1.65c2.79.42,8,.79,10.28.83" transform="translate(-85.01 -81.29)"/><path class="cls-1" d="M515.72,559.23c2.51.38,5.55.54,8.11.89,2.83.38,7.53.94,10.3,1.27" transform="translate(-85.01 -81.29)"/><path class="cls-1" d="M515.38,555.53c2.2.92,5.33.87,8.74,1.49a78.48,78.48,0,0,0,10.52,1.37" transform="translate(-85.01 -81.29)"/><path class="cls-1" d="M515.61,552.75c2.27.81,5.37.72,8.26,1.37s8.72.74,11.06,1.33" transform="translate(-85.01 -81.29)"/><path class="cls-1" d="M515.63,549.59c2.32.88,5.16.4,8,1.18,2.61.73,9.46,1.13,11.77,1.57" transform="translate(-85.01 -81.29)"/><path class="cls-1" d="M515.47,546.47c2,.95,7.84.61,10.66,1.42,2.46.71,7.85,1,9.85,1.32" transform="translate(-85.01 -81.29)"/><path class="cls-1" d="M515.34,543.56c2.37,1.23,5.64.37,9.2,1.26,1.45.36,10.58,1.42,11.87,1.6" transform="translate(-85.01 -81.29)"/><path class="cls-1" d="M515.31,540.44c2.44,1.08,6.94.55,10.28,1.32,1.36.31,9.93,1.62,11.17,1.8" transform="translate(-85.01 -81.29)"/><path class="cls-1" d="M515.22,537.54c2,.89,8.77.78,11.26,1.48,2.31.65,8.76,1.13,10.66,1.58" transform="translate(-85.01 -81.29)"/><path class="cls-1" d="M515,534.09a48.38,48.38,0,0,0,7.09,1.24c2.5.32,13.41,1.52,15.53,2.14" transform="translate(-85.01 -81.29)"/><path class="cls-1" d="M515,530c2.15,1,7.85,1.49,10.41,1.93s10.65.31,13,1.17" transform="translate(-85.01 -81.29)"/><path class="cls-1" d="M514.78,526.4c2,1,7,1.36,9.4,1.87,3.13.67,11.92.6,14.7,1.46" transform="translate(-85.01 -81.29)"/><path class="cls-1" d="M514.82,523.13c2,1,8.65,1.4,11.13,2,3.46.88,10.31.22,13.2,1" transform="translate(-85.01 -81.29)"/><path class="cls-1" d="M514.48,519.17a23.65,23.65,0,0,0,6.44,1.6c3.94.67,15.15,1.72,18.35,2" transform="translate(-85.01 -81.29)"/><path class="cls-1" d="M514.32,515.47c1.48.94,2.64.88,4.64,1.34,4.84,1.09,16.88,2.39,20.48,2.93" transform="translate(-85.01 -81.29)"/><path class="cls-1" d="M514.18,512.07a17.23,17.23,0,0,0,5.16,1.78c5.39,1.25,16.53,2.36,20.18,2.76" transform="translate(-85.01 -81.29)"/><path class="cls-1" d="M514.08,509.37c2.6,1,5.77,1.41,9.31,2.41,3.81,1.07,13.47,1.64,16.4,1.94" transform="translate(-85.01 -81.29)"/><path class="cls-1" d="M513.94,506.05a34.59,34.59,0,0,0,6,1.83,124.45,124.45,0,0,0,19.81,2.57" transform="translate(-85.01 -81.29)"/><path class="cls-1" d="M513.8,503.16c2,.54,5.39,1.84,7.91,2.27,5.56.95,14.85,2.32,18.22,1.76" transform="translate(-85.01 -81.29)"/><path class="cls-1" d="M513.61,500.62c.89.31,3.31.79,5,1.19,2,.48,3.5,1,11.84,1.75,1.33.11,7.23.5,9.42.57" transform="translate(-85.01 -81.29)"/><path class="cls-1" d="M513.23,497.84c2.4.46,5.47,1.16,8,1.79,5.41,1.32,13.91,1.61,18.63,1.7" transform="translate(-85.01 -81.29)"/><path class="cls-1" d="M513.15,494.93c3.52.75,7.84,2.26,12.36,2.59,3.88.28,11.67.73,14.74,1.05" transform="translate(-85.01 -81.29)"/><path class="cls-1" d="M513.18,492c4.17.79,8.64,2.32,13.9,2.56,3.22.15,10.37,1.05,13.17.92" transform="translate(-85.01 -81.29)"/><path class="cls-1" d="M513.1,489.23c4.57.95,9.89,2.27,15.94,2.38,2.74,0,8.69.63,11.1.46" transform="translate(-85.01 -81.29)"/><path class="cls-1" d="M512.8,486.45c3.49.27,7,1.21,11,1.67a122.44,122.44,0,0,0,16.59.62" transform="translate(-85.01 -81.29)"/><path class="cls-1" d="M512.75,483.78c4.61.61,9.93,1.08,15.64,1.4a111.54,111.54,0,0,0,11.94-.24" transform="translate(-85.01 -81.29)"/><path class="cls-1" d="M512.52,480.66a109,109,0,0,0,12.74.77c4.12-.14,11.65.32,15.1-.14" transform="translate(-85.01 -81.29)"/><path class="cls-1" d="M512.07,477.57c4.47.24,9.71.69,15.18.75,3.52,0,10.15.06,13.19-.43" transform="translate(-85.01 -81.29)"/><path class="cls-1" d="M512.09,474.62c2.76,0,6,.23,9,.35,6,.25,14.76.69,19.63-.32" transform="translate(-85.01 -81.29)"/><path class="cls-1" d="M512,472c3.7-.11,7.55.16,11.71.27,4.86.12,12.81-.06,17-.87" transform="translate(-85.01 -81.29)"/><path class="cls-1" d="M511.77,469.76c5-.41,10,.38,15.52-.47,3.49-.55,10.36-.68,13.59-1.34" transform="translate(-85.01 -81.29)"/><path class="cls-1" d="M511.28,466.6a147.08,147.08,0,0,0,15-.67c4.6-.33,11.07-1.16,14.9-1.49" transform="translate(-85.01 -81.29)"/><path class="cls-1" d="M511,463.44c4.62-.29,7.36-.29,10-.29,1.93,0,4.29-.27,11.68-1.51,1.45-.25,8-.32,8.79-.52" transform="translate(-85.01 -81.29)"/><path class="cls-1" d="M510.87,460c4-.27,8.8-.49,14.18-1.3,5.09-.77,12.38-.81,16.56-1.37" transform="translate(-85.01 -81.29)"/><path class="cls-1" d="M510.47,451.23a53.23,53.23,0,0,0,13.33-1.15,75.67,75.67,0,0,0,16.1-5.51" transform="translate(-85.01 -81.29)"/><path class="cls-1" d="M510.65,456.77a83,83,0,0,0,13-1.32c5.75-.95,14.18-1,17.82-2" transform="translate(-85.01 -81.29)"/><path class="cls-1" d="M510.44,453.64a50.31,50.31,0,0,0,11.92-.78c3.77-.51,7.58-1.05,8.39-1.16,2.09-.3,9.15-1.41,10.45-2.3" transform="translate(-85.01 -81.29)"/></g><g id="fecho3"><path class="cls-2" d="M408.32,311.1c9.34-.08,12,.68,33.92-.18" transform="translate(-85.01 -81.29)"/><path class="cls-2" d="M357.47,312.45c9.27-.47,26.76-.49,48.71-1.35" transform="translate(-85.01 -81.29)"/><path class="cls-2" d="M306.87,314.7c9.27-.47,26.54-1.12,48.48-2.16" transform="translate(-85.01 -81.29)"/><path class="cls-2" d="M258.51,316.2c9.17.66,25.24-.59,47.56-1.45" transform="translate(-85.01 -81.29)"/><path class="cls-2" d="M210.56,316c9.16,0,24.78.78,47.28.16" transform="translate(-85.01 -81.29)"/><path class="cls-2" d="M188.26,315.92c-1.52,0-12.13-.6-13.76-.58" transform="translate(-85.01 -81.29)"/><path class="cls-2" d="M173,314.11c1.53,0,15.69-1.19,17.32-1.2" transform="translate(-85.01 -81.29)"/><path class="cls-2" d="M206.64,312.27c1,0,15.45.62,16.51.64,32.85.76,37.42,1,39.8,1,9.13,0,16,.51,38.29-.65,17.71-.92,21.87-.42,37.37-1.73,16-1.35,33.83-1.4,52.62-1.89,13.7-.35,32.75-.43,56.16.38" transform="translate(-85.01 -81.29)"/><path class="cls-1" d="M209,317c2.43.29,6.08,0,10,.07s7.86.25,12.24.36c5.37.14,5.09-.11,9.11-.09,4.83,0,9.07.19,14.71,0,6.09-.18,4.86.11,12.75-.07,4.8-.11,7.22.07,16.51-.51,13.25-.81,12.75-.53,20.93-1,5.43-.32,5-.22,25.85-1.08,12-.5,18.06-.75,21.07-1,7.2-.54,10.29-.39,17-.61,4.5-.14,4.67-.21,13.84-.21,7.59,0,13.11-.46,19.84-.58,12.53-.22,10.08-.33,18.5-.43,8-.1,11.93,0,18.52-.54,3.84-.31,7-.7,9.14-1" transform="translate(-85.01 -81.29)"/><polyline class="cls-1" points="120.19 233.3 120.13 235.86 123.09 236"/><path class="cls-1" d="M202.83,317.29c.34,0,1.14-.08,1.58,0s2.23,0,2.53,0" transform="translate(-85.01 -81.29)"/><path class="cls-1" d="M205.3,310.93c4.6.11,12,.3,21.19.6,20,.65,22.9,1,34.18,1.15,11.83.15,21.24-.1,28.68-.29,8-.2,14.5-.47,25.52-.93,11.43-.48,17.15-.72,19.3-.87,9-.62,14.84-.93,22.81-1.37,2.5-.13,3.55,0,5.86,0,5.84,0,19.26-.55,21.62-.59" transform="translate(-85.01 -81.29)"/><path class="cls-1" d="M384.35,308.65c8.38-.18,7.37-.3,15.57-.38,4.64,0,5.41-.06,11.33,0,17.24,0,20.75-.11,28.5.39a41.37,41.37,0,0,1,9.41,1.77" transform="translate(-85.01 -81.29)"/><path class="cls-1" d="M193.72,310.61c-5.13,0-11.13.54-13.93.59,0,0-.92-.14-11.17,2.2a3.13,3.13,0,0,0-1.79,1.19.81.81,0,0,0-.17.59c.11.53,1,.76,1.42.87,4.21,1.06,6.51,1.62,6.51,1.62,7,.33,1.11.19,8.1.27,1.74,0,4-.19,6.81-.22" transform="translate(-85.01 -81.29)"/><path class="cls-1" d="M190.61,312.1a96.25,96.25,0,0,0-13.25.68c-1.28.12-5.71.9-5.7,1.38,0,.09.2.16,1,.37,1.52.4,2.39,1.06,3,1.17,2.55.44,2.3.53,4.69.86a31.92,31.92,0,0,0,5.06.24c1.17,0,3,.06,3.74,0" transform="translate(-85.01 -81.29)"/><path class="cls-1" d="M197,314.16s2.5-2,4-2a22,22,0,0,1,3.75.48s2.58,1.25,3.18,2.14,3.18,6.69,3.18,6.69l6,20,2.23,11.07s.43,2.1.19,2.43a71,71,0,0,1-7.06,2.67c-.16,0-2.39,1.08-2.91.81s-1.79-2.81-1.79-2.81l-3.91-10-3.35-9.94s-4.17-13.07-4.2-13.18a12.81,12.81,0,0,1-.8-3.74,12,12,0,0,1,.13-1.53" transform="translate(-85.01 -81.29)"/><path class="cls-1" d="M205.31,312.68l0-1.76s-9.63-.51-11.44-.33a6.09,6.09,0,0,0-3.84,1.87,4.9,4.9,0,0,0-1.08,2.7,8.23,8.23,0,0,0,.61,2.52,5.29,5.29,0,0,0,2.06.4c.48,0,4.1.11,4.1.11" transform="translate(-85.01 -81.29)"/><path class="cls-1" d="M201.06,314.52l2.84,0a2.25,2.25,0,0,1-.11.79c-.14.69,0,1.84-.61,1.91s-7.89.11-7.89.11a40.23,40.23,0,0,1-4-.22,1.39,1.39,0,0,1-1.09-1s-.22-1.8.18-2a41.27,41.27,0,0,1,5.32.11l3.48.11,2.21.19" transform="translate(-85.01 -81.29)"/><path class="cls-1" d="M201.59,314.44a2.41,2.41,0,0,1,2-.41c1.41.16,3.78,2.34,3.78,2.34s.92.81.76,1.46a1.93,1.93,0,0,1-.7,1.13c-.22.16-2.83,1.08-3,1.14l-4.83,1.51s-1.85.81-2,.16a15.86,15.86,0,0,1,.05-3l.16-1.35" transform="translate(-85.01 -81.29)"/><path class="cls-1" d="M213.93,339.11a32.11,32.11,0,0,0-4.09.27,8.78,8.78,0,0,0-3.31,1.18l-1.36.74-.63.24s-.38.3-.57-.06-2.93-9.61-2.93-9.61l-1.68-6.48s-.38-1.62,3.2-2.65,6.36-1.21,6.74-.67a11.19,11.19,0,0,1,.84,1.7,30.89,30.89,0,0,1,1.11,3.62l2.28,9.83Z" transform="translate(-85.01 -81.29)"/><path class="cls-1" d="M211.86,356.84a3.83,3.83,0,0,1-.59.1,2,2,0,0,1-.73.05c-.4-.11-.63-.75-.84-1.44s-.46-1.27-.72-1.93c-1-2.72-1.6-4.06-2.15-5.24,0,0-.43-.95-1-2.72a3,3,0,0,1-.19-1.64,2.53,2.53,0,0,1,.78-1.27,8.65,8.65,0,0,1,5.41-2.28,4.55,4.55,0,0,1,2.34.44,2.73,2.73,0,0,1,.78,1.4c.24.69.53,1.36.61,1.6.34.93.67,2.43.85,3.06.51,1.8.51,1.91.81,3.23.63,2.76.5,1.8.62,2.58a2,2,0,0,1-.18,1.41,1.09,1.09,0,0,1-.49.4,13.21,13.21,0,0,1-1.9.82c-1.28.56-2,.92-2.51,1.09A6.29,6.29,0,0,1,211.86,356.84Z" transform="translate(-85.01 -81.29)"/></g><g id="fecho2"><path class="cls-1" d="M170.74,250.52s-2.24,2.34-2.47,2.56-.7.86-.48,1.13,2.93,3.37,2.93,3.37l1.86,1.93" transform="translate(-85.01 -81.29)"/><path class="cls-1" d="M200.23,224.19s-3.7,3-4.67,3.94-6.52,6.64-6.52,6.64l-7.87,8.5L174,251.55s-2.09,2.89-2.54,3.6a1.77,1.77,0,0,0,.13,1.75l1.39,1.27" transform="translate(-85.01 -81.29)"/><path class="cls-1" d="M170.52,250.76c.22-.24,10.43-10.48,10.43-10.48l11.19-11.23a31,31,0,0,1,4-3,61.51,61.51,0,0,1,6.52-2.81" transform="translate(-85.01 -81.29)"/><path class="cls-1" d="M194.58,224.57c1.89-.25,2.8-.46,5.46-.89a44,44,0,0,0,5.29-1.6" transform="translate(-85.01 -81.29)"/><path class="cls-1" d="M193.86,218.34c0,.69-.08,1.49,0,2.39a11.23,11.23,0,0,0,1.21,3.65" transform="translate(-85.01 -81.29)"/><path class="cls-1" d="M218.86,214.47a5.08,5.08,0,0,0-1.45-1.3c-.87-.48-8.91,1.84-8.91,1.84l-20.44,4.86s-7.06,1.4-7.11,1.94a11.27,11.27,0,0,0,.11,1.81s-.06.87.49,1,4.77-.51,8.79-1.22l4-.7" transform="translate(-85.01 -81.29)"/><path class="cls-1" d="M221.21,212.89s-.94-2.52-2.9-2.6-19.55,3.32-22.81,4-15.28,4.11-15.28,4.11-2.17.29-2.1.79.73,6.91.73,6.91,0,.53.61.39,10.14-1.22,15.12-1.88" transform="translate(-85.01 -81.29)"/></g><g id="fecho"><path id="fecho-2" data-name="fecho" class="cls-1" d="M487.41,454.85s.1,3.23.14,3.55-.06,1.1-.4,1.16-4.44.58-4.44.58l-3.1.25" transform="translate(-85.01 -81.29)"/><path class="cls-1" d="M480.62,410.6s2.27,10,2.39,11.34.54,9.33.54,9.33l.58,11.23.22,10.8a33.69,33.69,0,0,1-.11,3.6c-.16.94-2.06,1.05-2.06,1.05l-2.68.28" transform="translate(-85.01 -81.29)"/><path class="cls-1" d="M487.41,455.17c0-.32-.79-14.72-.79-14.72l-.44-15.19s-.22-2.22-.45-4.4-.44-3.33-.44-3.33" transform="translate(-85.01 -81.29)"/><path class="cls-1" d="M487,419.61c-1.24-1.44-1.77-2.21-3.45-4.31-.8-1-6.72-11-7.2-11.95" transform="translate(-85.01 -81.29)"/><path class="cls-1" d="M492,415.13c-.52.53-1,1.24-1.72,1.9a12.85,12.85,0,0,1-3.49,2.1" transform="translate(-85.01 -81.29)"/><path class="cls-1" d="M476,395.35a9.2,9.2,0,0,1,2,.12c1,.18,5.35,7.34,5.35,7.34l11.82,17.37s4.28,5.78,3.93,6.24a13.16,13.16,0,0,1-1.36,1.37s-.58.73-1.1.5-3.21-3.57-5.71-6.78l-2.51-3.22" transform="translate(-85.01 -81.29)"/><path class="cls-1" d="M476,392.12a3.71,3.71,0,0,1,3.47.46c1.51,1.23,12.26,15.55,14.23,18.21s8.5,13.36,8.5,13.36,1.42,1.67,1,2-5.46,5-5.46,5-.35.45-.73-.1-6.71-7.66-10-11.48" transform="translate(-85.01 -81.29)"/></g><g id="Alça"><path class="cls-1" d="M389,120.24a62.83,62.83,0,0,1,7.27,9.07A53.4,53.4,0,0,1,402.16,141a113.66,113.66,0,0,1,3.53,13.44c.63,2.77,1.09,5,1.42,6.59" transform="translate(-85.01 -81.29)"/><g id="Layer_33" data-name="Layer 33"><path class="cls-1" d="M378.35,131c0,.49.24.31.61.39a9.45,9.45,0,0,0,3.53.28c2.7-.28,4.05-.42,4.64-1s1.42-.64,1.55-4.81c.08-2.54.21-5.07.21-5.55,0-7.16.14-7.79-.85-11.09a18.13,18.13,0,0,0-3.16-5.78,57.19,57.19,0,0,0-4.77-5.46" transform="translate(-85.01 -81.29)"/><path class="cls-1" d="M385.83,104.67c1.09,1.26,6.27,8.45,8.16,10.4,2.62,2.71,6,7.43,11.54,17.05.81,1.41,8.92,18.12,10.61,24.91a87.75,87.75,0,0,0,3.26,9.43" transform="translate(-85.01 -81.29)"/><path class="cls-1" d="M387.8,130.12c1.68,1.6,4,5.14,5.89,8.69,1.66,3.1,2.33,4.77,3.64,10,.67,2.69,1.33,5.58,2.05,9.95" transform="translate(-85.01 -81.29)"/><path class="cls-1" d="M271.31,133.31c-.5-4.43-1.11-8.43-1.59-10.84-.85-4.35-1.57-6.77-.58-9.94a13,13,0,0,1,2.18-4c2.63-3.48,5.76-6.27,9-7.63A73.85,73.85,0,0,1,295.36,96a111.85,111.85,0,0,1,25.92-4.46c7.9-.49,19.1-1.16,32.44,2,0,0,7.18,1.71,19.41,8.64a12.18,12.18,0,0,1,4.34,3.89,16.72,16.72,0,0,1,2.43,4.79c1.08,3.17-.8,15.91-.94,20.81" transform="translate(-85.01 -81.29)"/></g><path class="cls-1" d="M268.84,98.69c2.51-2.15,7.06-4.21,12.92-8,4.2-2.74,9.8-4.13,19.09-6.06a131.81,131.81,0,0,1,36.43-2.45c11.37.84,17.2,1.34,24.47,5.22,6.88,3.68,15.66,7.33,18.69,11" transform="translate(-85.01 -81.29)"/><path class="cls-1" d="M272.15,133.25c11.22-2.19,22-4.88,29.43-5.6,16.16-1.55,27.66-2.57,41.57-1,5.26.6,12.4.63,24.76,2.88,4.29.79,9.55,1.92,11.95,2.06" transform="translate(-85.01 -81.29)"/><path class="cls-1" d="M258.79,110c-2.32,2.23-7.17,8.88-11.75,12.78-5.68,4.83-10.41,9.44-18.94,19.48-12.68,14.91-8.68,10.79-12.25,15.33-1.81,2.3-4.78,7.27-7.6,11.62" transform="translate(-85.01 -81.29)"/><path class="cls-1" d="M262,134.22a116.63,116.63,0,0,0-13.39,13.42,76.29,76.29,0,0,0-9.34,12.77" transform="translate(-85.01 -81.29)"/><g id="Layer_31" data-name="Layer 31"><path class="cls-1" d="M269.11,98.53c-4,3.14-7.86,8.25-8.76,9.13-1.79,1.78-2.21,4.16-2.53,6.22-.42,2.65-.05,4.78.7,9a51.93,51.93,0,0,0,2.67,8.87c.68,1.75.15,1.72,2.68,3.41.54.36,1.18.1,1.82,0a8.47,8.47,0,0,0,2.84-.84,12.64,12.64,0,0,1,4-1.13" transform="translate(-85.01 -81.29)"/><path class="cls-1" d="M258.52,123.79a177.63,177.63,0,0,0-14.79,14.09c-4.51,4.77-9.49,9.72-15.49,18.83A66.54,66.54,0,0,0,224,164.6" transform="translate(-85.01 -81.29)"/></g></g><g id="picotado_bolso" data-name="picotado bolso"><path class="cls-1" d="M115.71,460.5l-2-.15" transform="translate(-85.01 -81.29)"/><path class="cls-3" d="M109.91,460l-1-.12a87.81,87.81,0,0,1-11.73-2.05,51.09,51.09,0,0,1-7-2.21l-.74-.31" transform="translate(-85.01 -81.29)"/><path class="cls-1" d="M87.74,454.51c-.72-.33-1.36-.64-1.8-.87" transform="translate(-85.01 -81.29)"/><path class="cls-1" d="M116.57,453.1c-.62,0-1.29,0-2,0" transform="translate(-85.01 -81.29)"/><path class="cls-4" d="M110.41,452.93c-1.92-.12-3.64-.26-4.63-.31a30.11,30.11,0,0,1-10.42-2.06,20.93,20.93,0,0,1-6.5-3.94" transform="translate(-85.01 -81.29)"/><path class="cls-1" d="M87.21,445.35c-.84-.5-1-.3-1.46-1.27" transform="translate(-85.01 -81.29)"/><path class="cls-1" d="M509.76,446c.67,0,1.34,0,2,0" transform="translate(-85.01 -81.29)"/><path class="cls-5" d="M515.26,445.68a58.46,58.46,0,0,0,6.16-1c7.46-1.62,10.37-3.2,12-4.38l.18-.12" transform="translate(-85.01 -81.29)"/><path class="cls-1" d="M535,439.15a8.07,8.07,0,0,0,1.5-1.31" transform="translate(-85.01 -81.29)"/><path class="cls-1" d="M509.1,440.14c.62.06,1.28.1,2,.13" transform="translate(-85.01 -81.29)"/><path class="cls-6" d="M514.91,440.22a34,34,0,0,0,4-.46,31.82,31.82,0,0,0,11.57-4.15c1.54-.94,2.85-1.72,4-2.47" transform="translate(-85.01 -81.29)"/><path class="cls-1" d="M535.92,432a10.5,10.5,0,0,0,1.43-1.39" transform="translate(-85.01 -81.29)"/></g><g id="picotado_mochila" data-name="picotado mochila"><path class="cls-7" d="M140,624.74l.15-1.5" transform="translate(-85.01 -81.29)"/><path class="cls-8" d="M140.5,620.26c1.36-13.49,2.05-24.52,2.43-32.39.47-9.57.44-13.6,1.16-26.64.23-4.16.55-9.34,1.74-25.77,1.36-18.76,1.71-22.45,2.32-31,.5-7,.82-12.29,2.46-44.92,2.14-42.68,2-41.74,2.46-47.67.9-11.73,2.24-23.52,4.92-47.09,3.29-28.93,4.89-39.68,5.65-44.64,3-19.27,5.21-29.51,8-39.31,5.21-18.58,9.36-25.53,10.86-27.94,6.76-10.85,14.55-17.29,19.84-21.6A107.17,107.17,0,0,1,235.62,213c14.06-4.73,25.68-5.38,35.05-5.9,3-.17,3-.09,27.37,0,14.83.05,22.32.07,25.49,0,19.32-.46,21.73-1.87,32.58-1.73a120.19,120.19,0,0,1,33.74,5,80.17,80.17,0,0,1,37.51,22.17,115.32,115.32,0,0,1,23.9,34.13,131.61,131.61,0,0,1,9.92,29.7,254.91,254.91,0,0,1,5.32,30.14c.6,5.61.73,10.42,1.2,20.41.66,14.1.05,15.49.58,26.1s.21,10,1.66,29.31c.5,6.6,1,13.9,1.88,28.51,1,16.1,1.53,24.15,1.74,28.22,1.24,24.19,2.49,27.19,3.77,42.63.49,6,1,10.93,3.62,32.69,4.09,34,5.32,35.6,8,53.86,1.33,9.12,2.4,17,3.42,23.26" transform="translate(-85.01 -81.29)"/><path class="cls-7" d="M492.57,613c.08.5.17,1,.25,1.47" transform="translate(-85.01 -81.29)"/><path class="cls-1" d="M121.32,626q-.15-.76-.3-1.47" transform="translate(-85.01 -81.29)"/><path class="cls-9" d="M120.44,621.55A99.82,99.82,0,0,1,118.6,607c-.61-10.09-.7-15.52-.65-21.81.09-12.13-1.4-29.87,0-47.74,1.55-19.8.84-53.38,5-98.5.67-7.26,2.12-24.69,3.91-50.55,2.2-31.81,4.88-47.59,6.73-59.61,7-45.67,15.44-72.36,25.85-89.21,16.88-27.32,44.77-38.45,51.92-42.12,17.26-8.87,41.78-10.64,70.82-14.26,12.62-1.58,36.66-1.43,67.34-.87,28.43.52,44.22,2.9,61.26,10.8,23.34,10.83,41.7,32.17,47.14,38.89,16.36,20.18,21.43,39.89,30,70.8,8.21,29.68,7.78,52.33,12.35,90.54,3.37,28.22,5,49.05,6.57,70.22,5.87,77.63,4.36,115.9,3.5,132.23-.34,6.35-.24,12.17-.36,16.51" transform="translate(-85.01 -81.29)"/><path class="cls-1" d="M509.89,613.76c0,.52-.05,1-.09,1.49" transform="translate(-85.01 -81.29)"/></g><g id="picotado_alça" data-name="picotado alça"><path class="cls-10" d="M388.75,124.82a54.63,54.63,0,0,1,6.33,8.73,55.79,55.79,0,0,1,5.2,12,70.14,70.14,0,0,1,2.53,11.81c.17,1.24.09.4.16,1.15" transform="translate(-85.01 -81.29)"/><path class="cls-1" d="M267,134.87c-.14-.43-.28-.91-.44-1.43" transform="translate(-85.01 -81.29)"/><path class="cls-11" d="M265.87,130.58a34.89,34.89,0,0,1-.49-13.3c.57-3.31,1.68-9.84,6.81-15.12a25.42,25.42,0,0,1,11-6.33c17.82-5.87,27.43-9,42.73-9.22a116.19,116.19,0,0,1,34.17,5.19c8.26,2.56,14.08,5.46,18.25,10.8a28.78,28.78,0,0,1,4.78,9.36c1,3.52.92,6.42.87,10.36,0,2.2-.17,4.16-.35,5.84" transform="translate(-85.01 -81.29)"/><path class="cls-1" d="M383.47,129.63c-.07.53-.14,1-.21,1.48" transform="translate(-85.01 -81.29)"/><path class="cls-10" d="M259.66,127.87c-5.44,4.64-8.58,9.19-11,11.42-9.84,9-13.5,13.37-19.5,22.37-1.65,2.47-.54.75-1.24,2" transform="translate(-85.01 -81.29)"/></g></svg>